ply
format ascii 1.0
comment Created by Blender 2.76 (sub 0) - www.blender.org, source file: 'Massive Door with Animation.blend'
element vertex 377
property float x
property float y
property float z
property float nx
property float ny
property float nz
property float s
property float t
element face 230
property list uchar uint vertex_indices
end_header
0.350682 1.133413 0.723839 -0.295541 -0.640797 0.708487 0.644871 0.157127
0.505274 1.133413 0.879204 -0.709952 -0.640797 0.292001 0.731173 0.157127
0.505274 1.190598 0.879204 -0.709952 0.640797 0.292001 0.731173 0.175488
0.350682 1.190598 0.723839 -0.295541 0.640797 0.708487 0.644871 0.175488
0.504727 1.133413 1.098377 -0.708487 -0.640797 -0.295541 0.815457 0.157127
0.504727 1.190598 1.098377 -0.708487 0.640797 -0.295541 0.815457 0.175488
0.349361 1.133413 1.252969 -0.292001 -0.640797 -0.709952 0.903762 0.157127
0.349361 1.190598 1.252969 -0.292001 0.640797 -0.709952 0.903762 0.175488
0.130188 1.133413 1.252422 0.295541 -0.640797 -0.708487 0.994524 0.157127
0.130188 1.190598 1.252422 0.295541 0.640797 -0.708487 0.994524 0.175488
0.130188 1.133413 1.252422 0.295541 -0.640797 -0.708487 0.644871 0.249884
-0.024404 1.133413 1.097056 0.709952 -0.640797 -0.292001 0.731173 0.249884
-0.024404 1.190598 1.097056 0.709952 0.640797 -0.292001 0.731173 0.269975
0.130188 1.190598 1.252422 0.295541 0.640797 -0.708487 0.644871 0.269975
-0.023857 1.133413 0.877883 0.708487 -0.640797 0.295541 0.815457 0.249884
-0.023857 1.190598 0.877883 0.708487 0.640797 0.295541 0.815457 0.269975
0.131509 1.133413 0.723292 0.292001 -0.640797 0.709952 0.903762 0.249884
0.131509 1.190598 0.723292 0.292001 0.640797 0.709952 0.903762 0.269975
0.350682 1.133413 0.723839 -0.295541 -0.640797 0.708487 0.994524 0.249884
0.350682 1.190598 0.723839 -0.295541 0.640797 0.708487 0.994524 0.269975
0.373833 1.131657 0.668340 0.297617 -0.634236 -0.713523 0.994524 0.323479
0.361879 1.122197 0.696996 0.017365 -0.998962 -0.041658 0.994524 0.336155
0.120446 1.122197 0.696393 -0.017151 -0.998962 -0.041749 0.903762 0.336155
0.108635 1.131657 0.667677 -0.294076 -0.634236 -0.714988 0.903762 0.323479
0.361879 1.122197 0.696996 0.017365 -0.998962 -0.041658 0.994524 0.238614
0.120446 1.122197 0.696393 -0.017151 -0.998962 -0.041749 0.903762 0.238614
-0.050699 1.122197 0.866686 -0.041658 -0.998962 -0.017365 0.815457 0.336155
-0.079355 1.131657 0.854733 -0.713523 -0.634236 -0.297617 0.815457 0.323479
-0.050699 1.122197 0.866686 -0.041658 -0.998962 -0.017365 0.815457 0.238614
-0.051302 1.122197 1.108119 -0.041749 -0.998962 0.017151 0.731173 0.336155
-0.080018 1.131657 1.119930 -0.714988 -0.634236 0.294076 0.731173 0.323479
-0.051302 1.122197 1.108119 -0.041749 -0.998962 0.017151 0.731173 0.238614
0.118991 1.122197 1.279264 -0.017365 -0.998962 0.041658 0.644871 0.336155
0.107037 1.131657 1.307920 -0.297617 -0.634236 0.713523 0.644871 0.323479
0.118991 1.122197 1.279264 -0.017365 -0.998962 0.041658 0.644871 0.238614
0.107037 1.131657 1.307920 -0.297617 -0.634236 0.713523 0.994524 0.224387
0.118991 1.122197 1.279264 -0.017365 -0.998962 0.041658 0.994524 0.235972
0.360424 1.122197 1.279867 0.017151 -0.998962 0.041749 0.903762 0.235972
0.372235 1.131657 1.308583 0.294076 -0.634236 0.714988 0.903762 0.224387
0.118991 1.122197 1.279264 -0.017365 -0.998962 0.041658 0.994524 0.146827
0.360424 1.122197 1.279867 0.017151 -0.998962 0.041749 0.903762 0.146827
0.531569 1.122197 1.109575 0.041658 -0.998962 0.017365 0.815457 0.235972
0.560225 1.131657 1.121528 0.713523 -0.634236 0.297617 0.815457 0.224387
0.531569 1.122197 1.109575 0.041658 -0.998962 0.017365 0.815457 0.146827
0.532172 1.122197 0.868141 0.041749 -0.998962 -0.017151 0.731173 0.235972
0.560888 1.131657 0.856331 0.714988 -0.634236 -0.294076 0.731173 0.224387
0.532172 1.122197 0.868141 0.041749 -0.998962 -0.017151 0.731173 0.146827
0.361879 1.122197 0.696996 0.017365 -0.998962 -0.041658 0.644871 0.146827
0.361879 1.122197 0.696996 0.017365 -0.998962 -0.041658 0.644871 0.235972
0.373833 1.131657 0.668340 0.297617 -0.634236 -0.713523 0.644871 0.224387
0.532172 1.201814 0.868141 0.041749 0.998962 -0.017151 0.731173 0.186358
0.361879 1.201814 0.696996 0.017365 0.998962 -0.041658 0.644871 0.186358
0.560888 1.192354 0.856331 0.714988 0.634236 -0.294046 0.731173 0.198183
0.373833 1.192354 0.668340 0.297617 0.634236 -0.713523 0.644871 0.198183
0.531569 1.201814 1.109575 0.041658 0.998962 0.017365 0.815457 0.186358
0.560225 1.192354 1.121528 0.713523 0.634236 0.297617 0.815457 0.198183
0.360424 1.201814 1.279867 0.017151 0.998962 0.041749 0.903762 0.186358
0.372235 1.192354 1.308583 0.294076 0.634236 0.714988 0.903762 0.198183
0.118991 1.201814 1.279264 -0.017365 0.998962 0.041658 0.994524 0.186358
0.107037 1.192354 1.307920 -0.297617 0.634236 0.713523 0.994524 0.198183
0.107037 1.192354 1.307920 -0.297617 0.634236 0.713523 0.644871 0.294807
0.118991 1.201814 1.279264 -0.017365 0.998962 0.041658 0.644871 0.281868
-0.051302 1.201814 1.108119 -0.041749 0.998962 0.017151 0.731173 0.281868
-0.080018 1.192354 1.119930 -0.714988 0.634236 0.294076 0.731173 0.294807
-0.050699 1.201814 0.866686 -0.041658 0.998962 -0.017365 0.815457 0.281868
-0.079355 1.192354 0.854733 -0.713523 0.634236 -0.297617 0.815457 0.294807
0.120446 1.201814 0.696393 -0.017151 0.998962 -0.041749 0.903762 0.281868
0.108635 1.192354 0.667677 -0.294046 0.634236 -0.714988 0.903762 0.294807
0.361879 1.201814 0.696996 0.017365 0.998962 -0.041658 0.994524 0.281868
0.373833 1.192354 0.668340 0.297617 0.634236 -0.713523 0.994524 0.294807
0.376772 1.162006 0.661295 0.384960 0.000000 -0.922910 0.994524 0.308835
0.105732 1.162006 0.660617 -0.380352 0.000000 -0.924802 0.903762 0.308835
-0.086401 1.162006 0.851794 -0.922910 0.000000 -0.384960 0.815457 0.308835
-0.087078 1.162006 1.122834 -0.924802 0.000000 0.380352 0.731173 0.308835
0.104098 1.162006 1.314966 -0.384960 0.000000 0.922910 0.644871 0.308835
0.375138 1.162006 1.315643 0.380352 0.000000 0.924802 0.903762 0.211003
0.104098 1.162006 1.314966 -0.384960 0.000000 0.922910 0.994524 0.211003
0.567271 1.162006 1.124467 0.922910 0.000000 0.384960 0.815457 0.211003
0.567948 1.162006 0.853427 0.924802 0.000000 -0.380352 0.731173 0.211003
0.376772 1.162006 0.661295 0.384960 0.000000 -0.922910 0.644871 0.211003
0.262540 1.196247 1.041820 0.000000 1.000000 0.000000 0.643962 0.078264
0.294125 1.196247 1.010504 0.000000 1.000000 0.000000 0.662171 0.096318
0.294125 1.196247 0.966025 0.000000 1.000000 0.000000 0.662171 0.121960
0.262808 1.196247 0.934441 0.000000 1.000000 0.000000 0.644117 0.140168
0.218330 1.196247 0.934441 0.000000 1.000000 0.000000 0.618475 0.140168
0.218062 1.196247 1.041820 0.000000 1.000000 0.000000 0.618320 0.078264
0.186745 1.196247 0.965757 0.000000 1.000000 0.000000 0.600266 0.122114
0.186745 1.196247 1.010235 0.000000 1.000000 0.000000 0.600266 0.096472
0.262808 1.118943 0.934441 0.000000 -1.000000 0.000000 0.798642 0.090324
0.255149 1.118943 0.952857 0.228828 -0.804163 -0.548540 0.791399 0.090324
0.225897 1.118943 0.952784 -0.226081 -0.804163 -0.549699 0.791399 0.081888
0.218330 1.118943 0.934441 0.000000 -1.000000 0.000000 0.798642 0.081888
0.205162 1.118943 0.973416 -0.548540 -0.804163 -0.228797 0.791399 0.073444
0.186745 1.118943 0.965757 0.000000 -1.000000 0.000000 0.798642 0.073444
0.186745 1.118943 0.965757 0.000000 -1.000000 0.000000 0.798642 0.140753
0.205162 1.118943 0.973416 -0.548540 -0.804163 -0.228797 0.791399 0.140753
0.205088 1.118943 1.002668 -0.549669 -0.804163 0.226081 0.791399 0.132292
0.186745 1.118943 1.010235 0.000000 -1.000000 0.000000 0.798642 0.132292
0.225721 1.118943 1.023404 -0.228828 -0.804163 0.548540 0.791399 0.123768
0.218062 1.118943 1.041820 0.000000 -1.000000 0.000000 0.798642 0.123768
0.254973 1.118943 1.023477 0.226081 -0.804163 0.549699 0.791399 0.115357
0.262540 1.118943 1.041820 0.000000 -1.000000 0.000000 0.798642 0.115357
0.275709 1.118943 1.002844 0.548540 -0.804163 0.228828 0.791399 0.107004
0.294125 1.118943 1.010504 0.000000 -1.000000 0.000000 0.798642 0.107004
0.275782 1.118943 0.973593 0.549669 -0.804163 -0.226081 0.791399 0.098702
0.294125 1.118943 0.966025 0.000000 -1.000000 0.000000 0.798642 0.098702
0.275782 0.922324 0.973593 0.924802 0.000000 -0.380352 0.684893 0.098702
0.255149 0.922324 0.952857 0.384960 0.000000 -0.922910 0.684893 0.090324
0.275709 0.922324 1.002844 0.922910 0.000000 0.384960 0.684893 0.107004
0.254973 0.922324 1.023477 0.380352 0.000000 0.924802 0.684893 0.115357
0.225721 0.922324 1.023404 -0.384960 0.000000 0.922910 0.684893 0.123768
0.205088 0.922324 1.002668 -0.924802 0.000000 0.380352 0.684893 0.132292
0.205162 0.922324 0.973416 -0.922910 0.000000 -0.384960 0.684893 0.140753
0.225897 0.922324 0.952784 -0.380352 0.000000 -0.924802 0.684893 0.081888
0.205162 0.922324 0.973416 -0.922910 0.000000 -0.384960 0.684893 0.073444
0.303653 1.135853 0.719837 0.691031 -0.606616 0.392956 0.974034 0.060882
0.274986 1.145761 0.785541 0.648122 -0.714408 0.263649 0.974034 0.047555
0.206896 1.145761 0.785371 -0.649434 -0.714286 0.260720 0.988774 0.047555
0.178558 1.135853 0.719525 -0.692984 -0.606616 0.389508 0.988774 0.060882
-0.027858 1.135853 0.924913 0.392956 -0.606616 -0.691031 0.864996 0.133373
0.037845 1.145761 0.953579 0.263649 -0.714408 -0.648122 0.864996 0.119367
0.037675 1.145761 1.021670 0.260720 -0.714286 0.649434 0.879963 0.119367
-0.028170 1.135853 1.050007 0.389508 -0.606616 0.692984 0.879963 0.133373
0.177217 1.135853 1.256423 -0.691031 -0.606616 -0.392956 0.804088 0.137858
0.205884 1.145761 1.190720 -0.648122 -0.714408 -0.263649 0.804088 0.125145
0.273974 1.145761 1.190890 0.649434 -0.714286 -0.260720 0.817751 0.125145
0.302312 1.135853 1.256736 0.692984 -0.606616 -0.389508 0.817751 0.137858
0.508728 1.135853 1.051348 -0.392956 -0.606616 0.691031 0.974351 0.136540
0.443025 1.145761 1.022682 -0.263649 -0.714408 0.648122 0.974351 0.119330
0.443195 1.145761 0.954591 -0.260720 -0.714286 -0.649434 0.988759 0.119330
0.509040 1.135853 0.926253 -0.389508 -0.606616 -0.692984 0.988759 0.136540
0.509040 1.135853 0.926253 -0.389508 -0.606616 -0.692984 0.934452 0.136540
0.443195 1.145761 0.954591 -0.260720 -0.714286 -0.649434 0.934452 0.119330
0.443195 1.179336 0.954591 -0.179022 0.739250 -0.649190 0.943335 0.119330
0.509040 1.179336 0.926253 -0.317789 0.594653 -0.738456 0.943335 0.136540
0.303653 1.179336 0.719837 0.736869 0.594653 0.321482 0.964857 0.060882
0.274986 1.179336 0.785541 0.648244 0.739341 0.181921 0.964857 0.047555
0.508728 1.179336 1.051348 -0.321482 0.594653 0.736869 0.965228 0.136540
0.443025 1.179336 1.022682 -0.181921 0.739341 0.648244 0.965228 0.119330
0.273974 1.179336 1.190890 0.649190 0.739250 -0.179022 0.826740 0.125145
0.302312 1.179336 1.256736 0.738456 0.594653 -0.317789 0.826740 0.137858
0.177217 1.179336 1.256423 -0.736869 0.594653 -0.321482 0.848651 0.137858
0.205884 1.179336 1.190720 -0.648244 0.739341 -0.181921 0.848651 0.125145
0.205884 1.145761 1.190720 -0.648122 -0.714408 -0.263649 0.857681 0.125145
0.177217 1.135853 1.256423 -0.691031 -0.606616 -0.392956 0.857681 0.137858
0.037675 1.179336 1.021670 0.179022 0.739250 0.649190 0.889225 0.119367
-0.028170 1.179336 1.050007 0.317789 0.594653 0.738456 0.889225 0.133373
-0.027858 1.179336 0.924913 0.321482 0.594653 -0.736869 0.911007 0.133373
0.037845 1.179336 0.953579 0.181921 0.739341 -0.648244 0.911007 0.119367
0.037845 1.145761 0.953579 0.263649 -0.714408 -0.648122 0.919658 0.119367
-0.027858 1.135853 0.924913 0.392956 -0.606616 -0.691031 0.919658 0.133373
0.178558 1.135853 0.719525 -0.692984 -0.606616 0.389508 0.934209 0.060882
0.206896 1.145761 0.785371 -0.649434 -0.714286 0.260720 0.934209 0.047555
0.206896 1.179336 0.785371 -0.649190 0.739250 0.179022 0.943003 0.047555
0.178558 1.179336 0.719525 -0.738456 0.594653 0.317789 0.943003 0.060882
0.226649 1.179336 0.934441 -0.672201 0.734947 0.089053 0.943003 0.008728
0.254637 1.179336 0.934441 0.670980 0.735771 0.091678 0.964857 0.008728
0.226649 1.152731 0.934441 -0.680685 -0.721976 0.123966 0.934209 0.008728
0.186745 1.179336 1.001916 0.089053 0.734947 0.672201 0.889225 0.080358
0.186745 1.179336 0.973929 0.091678 0.735771 -0.670980 0.911007 0.080358
0.186745 1.152731 0.973929 0.126652 -0.722800 -0.679342 0.919658 0.080358
0.186745 1.152731 1.001916 0.123966 -0.721976 0.680685 0.879963 0.080358
0.254221 1.179336 1.041820 0.672201 0.734947 -0.089053 0.826740 0.087727
0.226233 1.179336 1.041820 -0.670980 0.735771 -0.091678 0.848651 0.087727
0.226233 1.152731 1.041820 -0.679312 -0.722800 -0.126652 0.857681 0.087727
0.254221 1.152731 1.041820 0.680685 -0.721976 -0.123966 0.817751 0.087727
0.294125 1.179336 0.974345 -0.089053 0.734947 -0.672201 0.943335 0.085002
0.294125 1.179336 1.002332 -0.091678 0.735771 0.670980 0.965228 0.085002
0.294125 1.152731 1.002332 -0.126652 -0.722800 0.679342 0.974351 0.085002
0.254637 1.152731 0.934441 0.679342 -0.722800 0.126652 0.974034 0.008728
0.294125 1.152731 0.974345 -0.123966 -0.721976 -0.680685 0.934452 0.085002
0.294125 1.152731 0.974345 -0.123966 -0.721976 -0.680685 0.988759 0.085002
0.226233 1.152731 1.041820 -0.679312 -0.722800 -0.126652 0.804088 0.087727
0.186745 1.152731 0.973929 0.126652 -0.722800 -0.679342 0.864996 0.080358
0.226649 1.152731 0.934441 -0.680685 -0.721976 0.123966 0.988774 0.008728
0.262808 1.118943 0.934441 0.384625 0.000000 -0.923032 0.863593 0.005732
0.262808 1.196247 0.934441 0.384625 0.000000 -0.923032 0.863593 0.055335
0.294125 1.196247 0.966025 0.924680 0.000000 -0.380688 0.835053 0.055335
0.294125 1.118943 0.966025 0.924680 0.000000 -0.380688 0.835053 0.005732
0.294125 1.196247 1.010504 0.923032 0.000000 0.384625 0.806513 0.055335
0.294125 1.118943 1.010504 0.923032 0.000000 0.384625 0.806513 0.005732
0.262540 1.196247 1.041820 0.380688 0.000000 0.924680 0.777972 0.055335
0.262540 1.118943 1.041820 0.380688 0.000000 0.924680 0.777972 0.005732
0.218062 1.196247 1.041820 -0.384625 0.000000 0.923032 0.749431 0.055335
0.218062 1.118943 1.041820 -0.384625 0.000000 0.923032 0.749432 0.005732
0.186745 1.196247 1.010235 -0.924680 0.000000 0.380688 0.720891 0.055335
0.186745 1.118943 1.010235 -0.924680 0.000000 0.380688 0.720891 0.005732
0.186745 1.196247 0.965757 -0.923032 0.000000 -0.384625 0.692350 0.055335
0.186745 1.118943 0.965757 -0.923032 0.000000 -0.384625 0.692350 0.005732
0.186745 1.118943 0.965757 -0.923032 0.000000 -0.384625 0.920674 0.005732
0.186745 1.196247 0.965757 -0.923032 0.000000 -0.384625 0.920674 0.055335
0.218330 1.196247 0.934441 -0.380688 0.000000 -0.924680 0.892134 0.055335
0.218330 1.118943 0.934441 -0.380688 0.000000 -0.924680 0.892134 0.005732
0.350682 0.711234 0.723839 -0.295541 0.640797 0.708487 0.644871 0.157127
0.350682 0.654050 0.723839 -0.295541 -0.640797 0.708487 0.644871 0.175488
0.505274 0.654050 0.879204 -0.709952 -0.640797 0.292001 0.731173 0.175488
0.505274 0.711234 0.879204 -0.709952 0.640797 0.292001 0.731173 0.157127
0.504727 0.654050 1.098377 -0.708487 -0.640797 -0.295541 0.815457 0.175488
0.504727 0.711234 1.098377 -0.708487 0.640797 -0.295541 0.815457 0.157127
0.349361 0.654050 1.252969 -0.292001 -0.640797 -0.709952 0.903762 0.175488
0.349361 0.711234 1.252969 -0.292001 0.640797 -0.709952 0.903762 0.157127
0.130188 0.654050 1.252422 0.295541 -0.640797 -0.708487 0.994524 0.175488
0.130188 0.711234 1.252422 0.295541 0.640797 -0.708487 0.994524 0.157127
0.130188 0.711234 1.252422 0.295541 0.640797 -0.708487 0.644871 0.249884
0.130188 0.654050 1.252422 0.295541 -0.640797 -0.708487 0.644871 0.269975
-0.024404 0.654050 1.097056 0.709952 -0.640797 -0.292001 0.731173 0.269975
-0.024404 0.711234 1.097056 0.709952 0.640797 -0.292001 0.731173 0.249884
-0.023857 0.654050 0.877883 0.708487 -0.640797 0.295541 0.815457 0.269975
-0.023857 0.711234 0.877883 0.708487 0.640797 0.295541 0.815457 0.249884
0.131509 0.654050 0.723292 0.292001 -0.640797 0.709952 0.903762 0.269975
0.131509 0.711234 0.723292 0.292001 0.640797 0.709952 0.903762 0.249884
0.350682 0.654050 0.723839 -0.295541 -0.640797 0.708487 0.994524 0.269975
0.350682 0.711234 0.723839 -0.295541 0.640797 0.708487 0.994524 0.249884
0.373833 0.712991 0.668340 0.297617 0.634236 -0.713523 0.994524 0.323479
0.108635 0.712991 0.667677 -0.294076 0.634236 -0.714988 0.903762 0.323479
0.120446 0.722450 0.696393 -0.017151 0.998962 -0.041749 0.903762 0.336155
0.361879 0.722450 0.696996 0.017365 0.998962 -0.041658 0.994524 0.336155
0.361879 0.722450 0.696996 0.017365 0.998962 -0.041658 0.994524 0.238614
0.120446 0.722450 0.696393 -0.017151 0.998962 -0.041749 0.903762 0.238614
-0.079355 0.712991 0.854733 -0.713523 0.634236 -0.297617 0.815457 0.323479
-0.050699 0.722450 0.866686 -0.041658 0.998962 -0.017365 0.815457 0.336155
-0.050699 0.722450 0.866686 -0.041658 0.998962 -0.017365 0.815457 0.238614
-0.080018 0.712991 1.119930 -0.714988 0.634236 0.294076 0.731173 0.323479
-0.051302 0.722450 1.108119 -0.041749 0.998962 0.017151 0.731173 0.336155
-0.051302 0.722450 1.108119 -0.041749 0.998962 0.017151 0.731173 0.238614
0.107037 0.712991 1.307920 -0.297617 0.634236 0.713523 0.644871 0.323479
0.118991 0.722450 1.279264 -0.017365 0.998962 0.041658 0.644871 0.336155
0.118991 0.722450 1.279264 -0.017365 0.998962 0.041658 0.644871 0.238614
0.107037 0.712991 1.307920 -0.297617 0.634236 0.713523 0.994524 0.224387
0.372235 0.712991 1.308583 0.294076 0.634236 0.714988 0.903762 0.224387
0.360424 0.722450 1.279867 0.017151 0.998962 0.041749 0.903762 0.235972
0.118991 0.722450 1.279264 -0.017365 0.998962 0.041658 0.994524 0.235972
0.118991 0.722450 1.279264 -0.017365 0.998962 0.041658 0.994524 0.146827
0.360424 0.722450 1.279867 0.017151 0.998962 0.041749 0.903762 0.146827
0.560225 0.712991 1.121528 0.713523 0.634236 0.297617 0.815457 0.224387
0.531569 0.722450 1.109575 0.041658 0.998962 0.017365 0.815457 0.235972
0.531569 0.722450 1.109575 0.041658 0.998962 0.017365 0.815457 0.146827
0.560888 0.712991 0.856331 0.714988 0.634236 -0.294046 0.731173 0.224387
0.532172 0.722450 0.868141 0.041749 0.998962 -0.017151 0.731173 0.235972
0.532172 0.722450 0.868141 0.041749 0.998962 -0.017151 0.731173 0.146827
0.361879 0.722450 0.696996 0.017365 0.998962 -0.041658 0.644871 0.146827
0.361879 0.722450 0.696996 0.017365 0.998962 -0.041658 0.644871 0.235972
0.373833 0.712991 0.668340 0.297617 0.634236 -0.713523 0.644871 0.224387
0.361879 0.642834 0.696996 0.017365 -0.998962 -0.041658 0.644871 0.186358
0.532172 0.642834 0.868141 0.041749 -0.998962 -0.017151 0.731173 0.186358
0.373833 0.652293 0.668340 0.297617 -0.634236 -0.713523 0.644871 0.198183
0.560888 0.652293 0.856331 0.714988 -0.634236 -0.294076 0.731173 0.198183
0.560225 0.652293 1.121528 0.713523 -0.634236 0.297617 0.815457 0.198183
0.531569 0.642834 1.109575 0.041658 -0.998962 0.017365 0.815457 0.186358
0.372235 0.652293 1.308583 0.294076 -0.634236 0.714988 0.903762 0.198183
0.360424 0.642834 1.279867 0.017151 -0.998962 0.041749 0.903762 0.186358
0.107037 0.652293 1.307920 -0.297617 -0.634236 0.713523 0.994524 0.198183
0.118991 0.642834 1.279264 -0.017365 -0.998962 0.041658 0.994524 0.186358
0.107037 0.652293 1.307920 -0.297617 -0.634236 0.713523 0.644871 0.294807
-0.080018 0.652293 1.119930 -0.714988 -0.634236 0.294076 0.731173 0.294807
-0.051302 0.642834 1.108119 -0.041749 -0.998962 0.017151 0.731173 0.281868
0.118991 0.642834 1.279264 -0.017365 -0.998962 0.041658 0.644871 0.281868
-0.079355 0.652293 0.854733 -0.713523 -0.634236 -0.297617 0.815457 0.294807
-0.050699 0.642834 0.866686 -0.041658 -0.998962 -0.017365 0.815457 0.281868
0.108635 0.652293 0.667677 -0.294076 -0.634236 -0.714988 0.903762 0.294807
0.120446 0.642834 0.696393 -0.017151 -0.998962 -0.041749 0.903762 0.281868
0.373833 0.652293 0.668340 0.297617 -0.634236 -0.713523 0.994524 0.294807
0.361879 0.642834 0.696996 0.017365 -0.998962 -0.041658 0.994524 0.281868
0.376772 0.682642 0.661295 0.384960 0.000000 -0.922910 0.994524 0.308835
0.105732 0.682642 0.660617 -0.380352 0.000000 -0.924802 0.903762 0.308835
-0.086401 0.682642 0.851794 -0.922910 0.000000 -0.384960 0.815457 0.308835
-0.087078 0.682642 1.122834 -0.924802 0.000000 0.380352 0.731173 0.308835
0.104098 0.682642 1.314966 -0.384960 0.000000 0.922910 0.644871 0.308835
0.104098 0.682642 1.314966 -0.384960 0.000000 0.922910 0.994524 0.211003
0.375138 0.682642 1.315643 0.380352 0.000000 0.924802 0.903762 0.211003
0.567271 0.682642 1.124467 0.922910 0.000000 0.384960 0.815457 0.211003
0.567948 0.682642 0.853427 0.924802 0.000000 -0.380352 0.731173 0.211003
0.376772 0.682642 0.661295 0.384960 0.000000 -0.922910 0.644871 0.211003
0.262540 0.648401 1.041820 0.000000 -1.000000 0.000000 0.643962 0.078264
0.262808 0.648401 0.934441 0.000000 -1.000000 0.000000 0.644117 0.140168
0.294125 0.648401 0.966025 0.000000 -1.000000 0.000000 0.662171 0.121960
0.294125 0.648401 1.010504 0.000000 -1.000000 0.000000 0.662171 0.096318
0.218330 0.648401 0.934441 0.000000 -1.000000 0.000000 0.618475 0.140168
0.218062 0.648401 1.041820 0.000000 -1.000000 0.000000 0.618320 0.078264
0.186745 0.648401 1.010235 0.000000 -1.000000 0.000000 0.600266 0.096472
0.186745 0.648401 0.965757 0.000000 -1.000000 0.000000 0.600266 0.122114
0.262808 0.725704 0.934441 0.000000 1.000000 0.000000 0.798642 0.090324
0.218330 0.725704 0.934441 0.000000 1.000000 0.000000 0.798642 0.081888
0.225897 0.725704 0.952784 -0.226081 0.804163 -0.549669 0.791399 0.081888
0.255149 0.725704 0.952857 0.228828 0.804163 -0.548540 0.791399 0.090324
0.186745 0.725704 0.965757 0.000000 1.000000 0.000000 0.798642 0.073444
0.205162 0.725704 0.973416 -0.548540 0.804163 -0.228828 0.791399 0.073444
0.186745 0.725704 0.965757 0.000000 1.000000 0.000000 0.798642 0.140753
0.186745 0.725704 1.010235 0.000000 1.000000 0.000000 0.798642 0.132292
0.205088 0.725704 1.002668 -0.549669 0.804163 0.226081 0.791399 0.132292
0.205162 0.725704 0.973416 -0.548540 0.804163 -0.228828 0.791399 0.140753
0.218062 0.725704 1.041820 0.000000 1.000000 0.000000 0.798642 0.123768
0.225721 0.725704 1.023404 -0.228828 0.804163 0.548540 0.791399 0.123768
0.262540 0.725704 1.041820 0.000000 1.000000 0.000000 0.798642 0.115357
0.254973 0.725704 1.023477 0.226081 0.804163 0.549669 0.791399 0.115357
0.294125 0.725704 1.010504 0.000000 1.000000 0.000000 0.798642 0.107004
0.275709 0.725704 1.002844 0.548540 0.804163 0.228797 0.791399 0.107004
0.294125 0.725704 0.966025 0.000000 1.000000 0.000000 0.798642 0.098702
0.275782 0.725704 0.973593 0.549669 0.804163 -0.226081 0.791399 0.098702
0.303653 0.708794 0.719837 0.691031 0.606616 0.392956 0.974034 0.060882
0.178558 0.708794 0.719525 -0.692984 0.606616 0.389508 0.988774 0.060882
0.206896 0.698887 0.785371 -0.649434 0.714286 0.260720 0.988774 0.047555
0.274986 0.698887 0.785541 0.648122 0.714408 0.263649 0.974034 0.047555
-0.027858 0.708794 0.924913 0.392956 0.606616 -0.691031 0.864996 0.133373
-0.028170 0.708794 1.050007 0.389508 0.606616 0.692984 0.879963 0.133373
0.037675 0.698887 1.021670 0.260720 0.714286 0.649434 0.879963 0.119367
0.037845 0.698887 0.953579 0.263649 0.714408 -0.648122 0.864996 0.119367
0.177217 0.708794 1.256423 -0.691031 0.606616 -0.392956 0.804088 0.137858
0.302312 0.708794 1.256736 0.692984 0.606616 -0.389508 0.817751 0.137858
0.273974 0.698887 1.190890 0.649434 0.714286 -0.260720 0.817751 0.125145
0.205884 0.698887 1.190720 -0.648122 0.714408 -0.263649 0.804088 0.125145
0.508728 0.708794 1.051348 -0.392956 0.606616 0.691031 0.974351 0.136540
0.509040 0.708794 0.926253 -0.389508 0.606616 -0.692984 0.988759 0.136540
0.443195 0.698887 0.954591 -0.260720 0.714286 -0.649434 0.988759 0.119330
0.443025 0.698887 1.022682 -0.263649 0.714408 0.648122 0.974351 0.119330
0.509040 0.708794 0.926253 -0.389508 0.606616 -0.692984 0.934452 0.136540
0.509040 0.665311 0.926253 -0.317789 -0.594653 -0.738456 0.943335 0.136540
0.443195 0.665311 0.954591 -0.179022 -0.739250 -0.649190 0.943335 0.119330
0.443195 0.698887 0.954591 -0.260720 0.714286 -0.649434 0.934452 0.119330
0.303653 0.665311 0.719837 0.736869 -0.594653 0.321482 0.964857 0.060882
0.274986 0.665311 0.785541 0.648244 -0.739341 0.181921 0.964857 0.047555
0.508728 0.665311 1.051348 -0.321482 -0.594653 0.736869 0.965228 0.136540
0.443025 0.665311 1.022682 -0.181921 -0.739341 0.648244 0.965228 0.119330
0.302312 0.665311 1.256736 0.738456 -0.594653 -0.317789 0.826740 0.137858
0.273974 0.665311 1.190890 0.649190 -0.739250 -0.179022 0.826740 0.125145
0.177217 0.665311 1.256423 -0.736869 -0.594653 -0.321482 0.848651 0.137858
0.177217 0.708794 1.256423 -0.691031 0.606616 -0.392956 0.857681 0.137858
0.205884 0.698887 1.190720 -0.648122 0.714408 -0.263649 0.857681 0.125145
0.205884 0.665311 1.190720 -0.648244 -0.739341 -0.181921 0.848651 0.125145
-0.028170 0.665311 1.050007 0.317789 -0.594653 0.738456 0.889225 0.133373
0.037675 0.665311 1.021670 0.179022 -0.739250 0.649190 0.889225 0.119367
-0.027858 0.665311 0.924913 0.321482 -0.594653 -0.736869 0.911007 0.133373
-0.027858 0.708794 0.924913 0.392956 0.606616 -0.691031 0.919658 0.133373
0.037845 0.698887 0.953579 0.263649 0.714408 -0.648122 0.919658 0.119367
0.037845 0.665311 0.953579 0.181921 -0.739341 -0.648244 0.911007 0.119367
0.178558 0.708794 0.719525 -0.692984 0.606616 0.389508 0.934209 0.060882
0.178558 0.665311 0.719525 -0.738456 -0.594653 0.317789 0.943003 0.060882
0.206896 0.665311 0.785371 -0.649190 -0.739250 0.179022 0.943003 0.047555
0.206896 0.698887 0.785371 -0.649434 0.714286 0.260720 0.934209 0.047555
0.254637 0.665311 0.934441 0.670980 -0.735771 0.091678 0.964857 0.008728
0.226649 0.665311 0.934441 -0.672201 -0.734947 0.089053 0.943003 0.008728
0.226649 0.691917 0.934441 -0.680685 0.721976 0.123966 0.934209 0.008728
0.186745 0.665311 0.973929 0.091678 -0.735771 -0.670980 0.911007 0.080358
0.186745 0.665311 1.001916 0.089053 -0.734947 0.672201 0.889225 0.080358
0.186745 0.691917 0.973929 0.126652 0.722800 -0.679312 0.919658 0.080358
0.186745 0.691917 1.001916 0.123966 0.721976 0.680685 0.879963 0.080358
0.226233 0.665311 1.041820 -0.670980 -0.735771 -0.091678 0.848651 0.087727
0.254221 0.665311 1.041820 0.672201 -0.734947 -0.089053 0.826740 0.087727
0.226233 0.691917 1.041820 -0.679342 0.722800 -0.126652 0.857681 0.087727
0.254221 0.691917 1.041820 0.680685 0.721976 -0.123966 0.817751 0.087727
0.294125 0.665311 1.002332 -0.091678 -0.735771 0.670980 0.965228 0.085002
0.294125 0.665311 0.974345 -0.089053 -0.734947 -0.672201 0.943335 0.085002
0.294125 0.691917 1.002332 -0.126652 0.722800 0.679342 0.974351 0.085002
0.254637 0.691917 0.934441 0.679342 0.722800 0.126652 0.974034 0.008728
0.294125 0.691917 0.974345 -0.123966 0.721976 -0.680685 0.934452 0.085002
0.294125 0.691917 0.974345 -0.123966 0.721976 -0.680685 0.988759 0.085002
0.226233 0.691917 1.041820 -0.679342 0.722800 -0.126652 0.804088 0.087727
0.186745 0.691917 0.973929 0.126652 0.722800 -0.679312 0.864996 0.080358
0.226649 0.691917 0.934441 -0.680685 0.721976 0.123966 0.988774 0.008728
0.262808 0.725704 0.934441 0.384625 0.000000 -0.923032 0.863593 0.005732
0.294125 0.725704 0.966025 0.924680 0.000000 -0.380688 0.835053 0.005732
0.294125 0.648401 0.966025 0.924680 0.000000 -0.380688 0.835053 0.055335
0.262808 0.648401 0.934441 0.384625 0.000000 -0.923032 0.863593 0.055335
0.294125 0.725704 1.010504 0.923032 0.000000 0.384625 0.806513 0.005732
0.294125 0.648401 1.010504 0.923032 0.000000 0.384625 0.806513 0.055335
0.262540 0.725704 1.041820 0.380688 0.000000 0.924680 0.777972 0.005732
0.262540 0.648401 1.041820 0.380688 0.000000 0.924680 0.777972 0.055335
0.218062 0.725704 1.041820 -0.384625 0.000000 0.923032 0.749432 0.005732
0.218062 0.648401 1.041820 -0.384625 0.000000 0.923032 0.749431 0.055335
0.186745 0.725704 1.010235 -0.924680 0.000000 0.380688 0.720891 0.005732
0.186745 0.648401 1.010235 -0.924680 0.000000 0.380688 0.720891 0.055335
0.186745 0.725704 0.965757 -0.923032 0.000000 -0.384625 0.692350 0.005732
0.186745 0.648401 0.965757 -0.923032 0.000000 -0.384625 0.692350 0.055335
0.186745 0.725704 0.965757 -0.923032 0.000000 -0.384625 0.920674 0.005732
0.218330 0.725704 0.934441 -0.380688 0.000000 -0.924680 0.892134 0.005732
0.218330 0.648401 0.934441 -0.380688 0.000000 -0.924680 0.892134 0.055335
0.186745 0.648401 0.965757 -0.923032 0.000000 -0.384625 0.920674 0.055335
4 0 1 2 3
4 1 4 5 2
4 4 6 7 5
4 6 8 9 7
4 10 11 12 13
4 11 14 15 12
4 14 16 17 15
4 16 18 19 17
4 20 21 22 23
4 24 18 16 25
4 23 22 26 27
4 25 16 14 28
4 27 26 29 30
4 28 14 11 31
4 30 29 32 33
4 31 11 10 34
4 35 36 37 38
4 39 8 6 40
4 38 37 41 42
4 40 6 4 43
4 42 41 44 45
4 43 4 1 46
4 0 47 46 1
4 48 49 45 44
4 2 50 51 3
4 50 52 53 51
4 52 50 54 55
4 50 2 5 54
4 55 54 56 57
4 54 5 7 56
4 57 56 58 59
4 56 7 9 58
4 60 61 62 63
4 61 13 12 62
4 63 62 64 65
4 62 12 15 64
4 65 64 66 67
4 64 15 17 66
4 67 66 68 69
4 66 17 19 68
4 70 20 23 71
4 71 67 69 70
4 27 72 71 23
4 72 65 67 71
4 30 73 72 27
4 73 63 65 72
4 33 74 73 30
4 74 60 63 73
4 38 75 76 35
4 75 57 59 76
4 42 77 75 38
4 77 55 57 75
4 45 78 77 42
4 78 52 55 77
4 49 79 78 45
4 79 53 52 78
4 80 81 82 83
4 84 85 80 83
4 84 86 87 85
4 88 89 90 91
4 91 90 92 93
4 94 95 96 97
4 97 96 98 99
4 99 98 100 101
4 101 100 102 103
4 103 102 104 105
4 105 104 89 88
4 104 106 107 89
4 102 108 106 104
4 100 109 108 102
4 98 110 109 100
4 96 111 110 98
4 95 112 111 96
4 90 113 114 92
4 89 107 113 90
4 115 116 117 118
4 119 120 121 122
4 123 124 125 126
4 127 128 129 130
4 131 132 133 134
4 135 136 116 115
4 137 138 128 127
4 134 133 138 137
4 126 125 139 140
4 141 142 143 144
4 140 139 142 141
4 122 121 145 146
4 147 148 149 150
4 146 145 148 147
4 151 152 153 154
4 154 153 136 135
4 153 155 156 136
4 152 157 155 153
4 145 158 159 148
4 148 159 160 149
4 121 161 158 145
4 139 162 163 142
4 142 163 164 143
4 125 165 162 139
4 133 166 167 138
4 138 167 168 128
4 136 156 169 116
4 132 170 166 133
4 128 168 171 129
4 124 172 165 125
4 120 173 161 121
4 116 169 174 117
4 175 176 177 178
4 178 177 179 180
4 180 179 181 182
4 182 181 183 184
4 184 183 185 186
4 186 185 187 188
4 189 190 191 192
4 192 191 176 175
4 193 194 195 196
4 196 195 197 198
4 198 197 199 200
4 200 199 201 202
4 203 204 205 206
4 206 205 207 208
4 208 207 209 210
4 210 209 211 212
4 213 214 215 216
4 217 218 210 212
4 214 219 220 215
4 218 221 208 210
4 219 222 223 220
4 221 224 206 208
4 222 225 226 223
4 224 227 203 206
4 228 229 230 231
4 232 233 200 202
4 229 234 235 230
4 233 236 198 200
4 234 237 238 235
4 236 239 196 198
4 193 196 239 240
4 241 238 237 242
4 195 194 243 244
4 244 243 245 246
4 246 247 248 244
4 244 248 197 195
4 247 249 250 248
4 248 250 199 197
4 249 251 252 250
4 250 252 201 199
4 253 254 255 256
4 256 255 205 204
4 254 257 258 255
4 255 258 207 205
4 257 259 260 258
4 258 260 209 207
4 259 261 262 260
4 260 262 211 209
4 263 264 214 213
4 264 263 261 259
4 219 214 264 265
4 265 264 259 257
4 222 219 265 266
4 266 265 257 254
4 225 222 266 267
4 267 266 254 253
4 229 228 268 269
4 269 268 251 249
4 234 229 269 270
4 270 269 249 247
4 237 234 270 271
4 271 270 247 246
4 242 237 271 272
4 272 271 246 245
4 273 274 275 276
4 277 274 273 278
4 277 278 279 280
4 281 282 283 284
4 282 285 286 283
4 287 288 289 290
4 288 291 292 289
4 291 293 294 292
4 293 295 296 294
4 295 297 298 296
4 297 281 284 298
4 298 284 107 106
4 296 298 106 108
4 294 296 108 109
4 292 294 109 110
4 289 292 110 111
4 290 289 111 112
4 283 286 114 113
4 284 283 113 107
4 299 300 301 302
4 303 304 305 306
4 307 308 309 310
4 311 312 313 314
4 315 316 317 318
4 319 299 302 320
4 321 311 314 322
4 316 321 322 317
4 308 323 324 309
4 325 326 327 328
4 323 325 328 324
4 304 329 330 305
4 331 332 333 334
4 329 331 334 330
4 335 336 337 338
4 336 319 320 337
4 337 320 339 340
4 338 337 340 341
4 330 334 342 343
4 334 333 344 342
4 305 330 343 345
4 324 328 346 347
4 328 327 348 346
4 309 324 347 349
4 317 322 350 351
4 322 314 352 350
4 320 302 353 339
4 318 317 351 354
4 314 313 355 352
4 310 309 349 356
4 306 305 345 357
4 302 301 358 353
4 359 360 361 362
4 360 363 364 361
4 363 365 366 364
4 365 367 368 366
4 367 369 370 368
4 369 371 372 370
4 373 374 375 376
4 374 359 362 375
