  0
SECTION
  2
HEADER
  9
$ACADVER
  1
AC1009
  9
$INSBASE
 10
0.0
 20
0.0
 30
0.0
  9
$EXTMIN
 10
0.0
 20
0.0
 30
0.0
  9
$EXTMAX
 10
0.0
 20
0.0
 30
0.0
  0
ENDSEC
  0
SECTION
  2
TABLES
  0
TABLE
  2
VPORT
 70
1
  0
VPORT
  2
*ACTIVE
 70
0
 10
0.0
 20
0.0
 11
1.0
 21
1.0
 12
-5.0
 22
1.0
 13
0.0
 23
0.0
 14
0.1
 24
0.1
 15
0.1
 25
0.1
 16
0.0
 26
0.0
 36
1.0
 17
0.0
 27
0.0
 37
0.0
 40
10.0
 41
1.0
 42
50.0
 43
0.0
 44
0.0
 50
0.0
 51
0.0
 71
0
 72
100
 73
1
 74
1
 75
0
 76
0
 77
0
 78
0
  0
ENDTAB
  0
TABLE
  2
LTYPE
 70
8
  0
LTYPE
  2
CONTINUOUS
 70
0
  3
Solid line
 72
65
 73
0
 40
0.0
  0
LTYPE
  2
DOT
 70
0
  3
. . . . . . .
 72
65
 73
2
 40
0.25
 49
0.0
 49
-0.25
  0
LTYPE
  2
DASHED
 70
0
  3
__ __ __ __ __
 72
65
 73
2
 40
0.8
 49
0.5
 49
-0.3
  0
LTYPE
  2
DASHDOT
 70
0
  3
__ . __ . __ .
 72
65
 73
4
 40
1.0
 49
0.5
 49
-0.25
 49
0.0
 49
-0.25
  0
LTYPE
  2
DIVIDE
 70
0
  3
____ . . ____ . . 
 72
65
 73
6
 40
1.25
 49
0.5
 49
-0.25
 49
0.0
 49
-0.25
 49
0.0
 49
-0.25
  0
LTYPE
  2
BORDER
 70
0
  3
__ __ . __ __ . 
 72
65
 73
6
 40
1.75
 49
0.5
 49
-0.25
 49
0.5
 49
-0.25
 49
0.0
 49
-0.25
  0
LTYPE
  2
HIDDEN
 70
0
  3
__ __ __ __ __
 72
65
 73
2
 40
0.4
 49
0.25
 49
-0.25
  0
LTYPE
  2
CENTER
 70
0
  3
____ _ ____ _ __
 72
65
 73
4
 40
2.0
 49
1.25
 49
-0.25
 49
0.25
 49
-0.25
  0
ENDTAB
  0
TABLE
  2
LAYER
 70
1
  0
LAYER
  2
PYDXF
 70
64
 62
7
  6
continuous
  0
ENDTAB
  0
TABLE
  2
STYLE
 70
1
  0
STYLE
  2
STANDARD
 70
0
 40
0
 41
1.0
 50
0.0
 71
0
 42
1
 3
ARIAL.TTF
 4

  0
ENDTAB
  0
TABLE
  2
VIEW
 70
1
  0
VIEW
  2
BF_TOPVIEW
 70
0
 40
120.0
 10
0.0
 20
0.0
 41
200.0
 11
0.0
 21
0.0
 31
1.0
 12
0.0
 22
0.0
 32
0.0
 42
50.0
 43
0.0
 44
0.0
 50
0.0
 71
0
  0
ENDTAB
  0
ENDSEC
  0
SECTION
  2
BLOCKS
  0
ENDSEC
  0
SECTION
  2
ENTITIES
  0
3DFACE
  8
0
 10
0.9513147473335266
 20
1.0377469062805176
 30
1.7421239614486694
 11
0.9513147473335266
 21
1.0377469062805176
 31
1.4050557613372803
 12
0.6898065209388733
 22
1.0377469062805176
 32
1.4050557613372803
 13
0.6898065209388733
 23
1.0377469062805176
 33
1.7421239614486694
  0
3DFACE
  8
0
 10
0.6898065209388733
 20
1.0377469062805176
 30
0.23413681983947754
 11
0.6898065209388733
 21
1.0377469062805176
 31
0.5712052583694458
 12
0.9513147473335266
 22
1.0377469062805176
 32
0.5712052583694458
 13
0.9513147473335266
 23
1.0377469062805176
 33
0.23413681983947754
  0
3DFACE
  8
0
 10
0.9678433537483215
 20
0.9999997615814209
 30
1.7421239614486694
 11
0.9513147473335266
 21
1.0377469062805176
 31
1.7421239614486694
 12
0.6898065209388733
 22
1.0377469062805176
 32
1.7421239614486694
 13
0.6732779145240784
 23
0.9999997615814209
 33
1.7421239614486694
  0
3DFACE
  8
0
 10
0.6732779145240784
 20
0.9999997615814209
 30
0.23413681983947754
 11
0.6898065209388733
 21
1.0377469062805176
 31
0.23413681983947754
 12
0.9513147473335266
 22
1.0377469062805176
 32
0.23413681983947754
 13
0.9678433537483215
 23
0.9999997615814209
 33
0.23413681983947754
  0
3DFACE
  8
0
 10
0.6898065209388733
 20
1.0377469062805176
 30
0.23413681983947754
 11
0.6732779145240784
 21
0.9999997615814209
 31
0.23413681983947754
 12
0.6732779145240784
 22
0.9999997615814209
 32
0.5712052583694458
 13
0.6898065209388733
 23
1.0377469062805176
 33
0.5712052583694458
  0
3DFACE
  8
0
 10
0.6732779145240784
 20
0.9999997615814209
 30
1.7421239614486694
 11
0.6898065209388733
 21
1.0377469062805176
 31
1.7421239614486694
 12
0.6898065209388733
 22
1.0377469062805176
 32
1.4050557613372803
 13
0.6732779145240784
 23
0.9999997615814209
 33
1.4050557613372803
  0
3DFACE
  8
0
 10
0.9678433537483215
 20
0.9999997615814209
 30
0.23413681983947754
 11
0.9513147473335266
 21
1.0377469062805176
 31
0.23413681983947754
 12
0.9513147473335266
 22
1.0377469062805176
 32
0.5712052583694458
 13
0.9678433537483215
 23
0.9999997615814209
 33
0.5712052583694458
  0
3DFACE
  8
0
 10
0.9678433537483215
 20
0.9999997615814209
 30
1.4050557613372803
 11
0.9513147473335266
 21
1.0377469062805176
 31
1.4050557613372803
 12
0.9513147473335266
 22
1.0377469062805176
 32
1.7421239614486694
 13
0.9678433537483215
 23
0.9999997615814209
 33
1.7421239614486694
  0
3DFACE
  8
0
 10
0.6732779145240784
 20
0.9999997615814209
 30
1.4050557613372803
 11
0.6898065209388733
 21
1.0377469062805176
 31
1.4050557613372803
 12
0.9513147473335266
 22
1.0377469062805176
 32
1.4050557613372803
 13
0.9678433537483215
 23
0.9999997615814209
 33
1.4050557613372803
  0
3DFACE
  8
0
 10
0.9678433537483215
 20
0.9999997615814209
 30
0.5712052583694458
 11
0.9513147473335266
 21
1.0377469062805176
 31
0.5712052583694458
 12
0.6898065209388733
 22
1.0377469062805176
 32
0.5712052583694458
 13
0.6732779145240784
 23
0.9999997615814209
 33
0.5712052583694458
  0
3DFACE
  8
0
 10
0.9999999403953552
 20
-0.9999999403953552
 30
0.0
 11
-1.0000001192092896
 21
-0.9999998211860657
 31
0.0
 12
-0.9999996423721313
 22
1.0000003576278687
 32
0.0
 13
0.9999999403953552
 23
0.9999999403953552
 33
0.0
  0
3DFACE
  8
0
 10
-0.7225020527839661
 20
-1.0
 30
2.0
 11
0.7225025296211243
 21
-1.000000238418579
 31
2.0
 12
0.7225025296211243
 22
0.9999996423721313
 32
2.0
 13
-0.7225020527839661
 23
0.9999998211860657
 33
2.0
  0
3DFACE
  8
0
 10
-0.5497744083404541
 20
1.0
 30
1.8576328754425049
 11
-0.7225020527839661
 21
0.9999998211860657
 31
2.0
 12
0.7225025296211243
 22
0.9999996423721313
 32
2.0
 13
0.5497748851776123
 23
0.9999998807907104
 33
1.8576328754425049
  0
3DFACE
  8
0
 10
0.7225025296211243
 20
-1.000000238418579
 30
2.0
 11
0.9999992847442627
 21
-1.0000005960464478
 31
2.0
 12
1.0000004768371582
 22
0.9999997615814209
 32
2.0
 13
0.7225025296211243
 23
0.9999996423721313
 33
2.0
  0
3DFACE
  8
0
 10
0.7225025296211243
 20
0.9999996423721313
 30
2.0
 11
1.0000004768371582
 21
0.9999997615814209
 31
2.0
 12
0.6666668653488159
 22
0.9999997615814209
 32
1.6923351287841797
 13
0.5497748851776123
 23
0.9999998807907104
 33
1.8576328754425049
  0
3DFACE
  8
0
 10
0.6666668653488159
 20
0.9999997615814209
 30
1.6923351287841797
 11
1.0000004768371582
 21
0.9999997615814209
 31
2.0
 12
1.0
 22
0.9999997615814209
 32
0.16244685649871826
 13
0.6666668653488159
 23
0.9999997615814209
 33
0.2839256525039673
  0
3DFACE
  8
0
 10
-0.7225020527839661
 20
0.9999998211860657
 30
2.0
 11
-0.9999999403953552
 21
1.0
 31
2.0
 12
-1.0000003576278687
 22
-0.9999996423721313
 32
2.0
 13
-0.7225020527839661
 23
-1.0
 33
2.0
  0
3DFACE
  8
0
 10
-0.9999999403953552
 20
1.0
 30
2.0
 11
-0.7225020527839661
 21
0.9999998211860657
 31
2.0
 12
-0.5497744083404541
 22
1.0
 32
1.8576328754425049
 13
-0.6666664481163025
 23
1.0000001192092896
 33
1.6923351287841797
  0
3DFACE
  8
0
 10
-0.9999999403953552
 20
1.0
 30
2.0
 11
-0.6666664481163025
 21
1.0000001192092896
 31
1.6923351287841797
 12
-0.6666663885116577
 22
1.000000238418579
 32
0.2839256525039673
 13
-0.9999996423721313
 23
1.000000238418579
 33
0.16244685649871826
  0
3DFACE
  8
0
 10
0.9999999403953552
 20
0.9999999403953552
 30
0.0
 11
-0.9999996423721313
 21
1.0000003576278687
 31
0.0
 12
-0.5497744083404541
 22
1.000000238418579
 32
0.08508414030075073
 13
0.5497748851776123
 23
1.0
 33
0.08508414030075073
  0
3DFACE
  8
0
 10
0.6666668653488159
 20
0.9999997615814209
 30
0.2839256525039673
 11
1.0
 21
0.9999997615814209
 31
0.16244685649871826
 12
0.9999999403953552
 22
0.9999999403953552
 32
0.0
 13
0.5497748851776123
 23
1.0
 33
0.08508414030075073
  0
3DFACE
  8
0
 10
-0.6666663885116577
 20
1.000000238418579
 30
0.2839256525039673
 11
-0.5497744083404541
 21
1.000000238418579
 31
0.08508414030075073
 12
-0.9999996423721313
 22
1.0000003576278687
 32
0.0
 13
-0.9999996423721313
 23
1.000000238418579
 33
0.16244685649871826
  0
3DFACE
  8
0
 10
0.9999999403953552
 20
0.9999999403953552
 30
0.0
 11
1.0
 21
0.9999997615814209
 31
0.16244685649871826
 12
1.0
 22
0.8999998569488525
 32
0.1624467968940735
 13
0.9999999403953552
 23
0.8999998569488525
 33
0.038007378578186035
  0
3DFACE
  8
0
 10
1.0
 20
0.9999997615814209
 30
0.16244685649871826
 11
1.0000004768371582
 21
0.9999997615814209
 31
2.0
 12
1.0000003576278687
 22
0.8999998569488525
 32
1.899999976158142
 13
1.0
 23
0.8999998569488525
 33
0.1624467968940735
  0
3DFACE
  8
0
 10
-0.9999996423721313
 20
1.000000238418579
 30
0.16244685649871826
 11
-0.9999996423721313
 21
1.0000003576278687
 31
0.0
 12
-0.9999996423721313
 22
0.8999998569488525
 32
0.038007378578186035
 13
-0.9999996423721313
 23
0.8999998569488525
 33
0.16244685649871826
  0
3DFACE
  8
0
 10
-0.9999999403953552
 20
1.0
 30
2.0
 11
-0.9999996423721313
 21
1.000000238418579
 31
0.16244685649871826
 12
-0.9999996423721313
 22
0.8999998569488525
 32
0.16244685649871826
 13
-0.9999999403953552
 23
0.8999998569488525
 33
1.9000000953674316
  0
3DFACE
  8
0
 10
0.5497748851776123
 20
1.0
 30
0.08508414030075073
 11
-0.5497744083404541
 21
1.000000238418579
 31
0.08508414030075073
 12
-0.5497744083404541
 22
0.8999998569488525
 32
0.08508408069610596
 13
0.5497748851776123
 23
0.8999998569488525
 33
0.08508408069610596
  0
3DFACE
  8
0
 10
-0.5497744083404541
 20
1.000000238418579
 30
0.08508414030075073
 11
-0.6666663885116577
 21
1.000000238418579
 31
0.2839256525039673
 12
-0.6666663885116577
 22
0.8999998569488525
 32
0.2839256525039673
 13
-0.5497744083404541
 23
0.8999998569488525
 33
0.08508408069610596
  0
3DFACE
  8
0
 10
0.6666668653488159
 20
0.9999997615814209
 30
0.2839256525039673
 11
0.5497748851776123
 21
1.0
 31
0.08508414030075073
 12
0.5497748851776123
 22
0.8999998569488525
 32
0.08508408069610596
 13
0.6666668653488159
 23
0.8999998569488525
 33
0.2839255928993225
  0
3DFACE
  8
0
 10
-1.0000001192092896
 20
-0.9999998211860657
 30
0.0
 11
0.9999999403953552
 21
-0.9999999403953552
 31
0.0
 12
0.9999999403953552
 22
-0.9999999403953552
 32
0.03800743818283081
 13
-1.0000001192092896
 23
-0.9999998211860657
 33
0.03800743818283081
  0
3DFACE
  8
0
 10
-0.7225020527839661
 20
-1.0
 30
2.0
 11
-1.0000003576278687
 21
-0.9999996423721313
 31
2.0
 12
-1.0000003576278687
 22
-0.9999996423721313
 32
1.899999976158142
 13
-0.7225020527839661
 23
-1.0
 33
1.899999976158142
  0
3DFACE
  8
0
 10
0.9999992847442627
 20
-1.0000005960464478
 30
2.0
 11
0.7225025296211243
 21
-1.000000238418579
 31
2.0
 12
0.7225025296211243
 22
-1.000000238418579
 32
1.899999976158142
 13
0.9999992847442627
 23
-1.0000005960464478
 33
1.899999976158142
  0
3DFACE
  8
0
 10
-0.6666663885116577
 20
1.000000238418579
 30
0.2839256525039673
 11
-0.6666664481163025
 21
1.0000001192092896
 31
1.6923351287841797
 12
-0.6666664481163025
 22
0.8999998569488525
 32
1.6923351287841797
 13
-0.6666663885116577
 23
0.8999998569488525
 33
0.2839256525039673
  0
3DFACE
  8
0
 10
-0.9999996423721313
 20
1.0000003576278687
 30
0.0
 11
-1.0000001192092896
 21
-0.9999998211860657
 31
0.0
 12
-1.0000001192092896
 22
-0.9999998211860657
 32
0.03800743818283081
 13
-0.9999996423721313
 23
0.8999998569488525
 33
0.038007378578186035
  0
3DFACE
  8
0
 10
-0.6666664481163025
 20
1.0000001192092896
 30
1.6923351287841797
 11
-0.5497744083404541
 21
1.0
 31
1.8576328754425049
 12
-0.5497744083404541
 22
0.8999998569488525
 32
1.8576328754425049
 13
-0.6666664481163025
 23
0.8999998569488525
 33
1.6923351287841797
  0
3DFACE
  8
0
 10
0.6666668653488159
 20
0.9999997615814209
 30
1.6923351287841797
 11
0.6666668653488159
 21
0.9999997615814209
 31
0.2839256525039673
 12
0.6666668653488159
 22
0.8999998569488525
 32
0.2839255928993225
 13
0.6666668057441711
 23
0.8999998569488525
 33
1.6923351287841797
  0
3DFACE
  8
0
 10
0.9999999403953552
 20
-0.9999999403953552
 30
0.0
 11
0.9999999403953552
 21
0.9999999403953552
 31
0.0
 12
0.9999999403953552
 22
0.8999998569488525
 32
0.038007378578186035
 13
0.9999999403953552
 23
-0.9999999403953552
 33
0.03800743818283081
  0
3DFACE
  8
0
 10
0.5497748851776123
 20
0.9999998807907104
 30
1.8576328754425049
 11
0.6666668653488159
 21
0.9999997615814209
 31
1.6923351287841797
 12
0.6666668057441711
 22
0.8999998569488525
 32
1.6923351287841797
 13
0.5497748255729675
 23
0.8999998569488525
 33
1.8576328754425049
  0
3DFACE
  8
0
 10
-0.5497744083404541
 20
1.0
 30
1.8576328754425049
 11
0.5497748851776123
 21
0.9999998807907104
 31
1.8576328754425049
 12
0.5497748255729675
 22
0.8999998569488525
 32
1.8576328754425049
 13
-0.5497744083404541
 23
0.8999998569488525
 33
1.8576328754425049
  0
3DFACE
  8
0
 10
-1.0000003576278687
 20
-0.9999996423721313
 30
2.0
 11
-0.9999999403953552
 21
1.0
 31
2.0
 12
-0.9999999403953552
 22
0.8999998569488525
 32
1.9000000953674316
 13
-1.0000003576278687
 23
-0.9999996423721313
 33
1.899999976158142
  0
3DFACE
  8
0
 10
1.0000004768371582
 20
0.9999997615814209
 30
2.0
 11
0.9999992847442627
 21
-1.0000005960464478
 31
2.0
 12
0.9999992847442627
 22
-1.0000005960464478
 32
1.899999976158142
 13
1.0000003576278687
 23
0.8999998569488525
 33
1.899999976158142
  0
3DFACE
  8
0
 10
0.7225025296211243
 20
-1.000000238418579
 30
2.0
 11
-0.7225020527839661
 21
-1.0
 31
2.0
 12
-0.7225020527839661
 22
-1.0
 32
1.899999976158142
 13
0.7225025296211243
 23
-1.000000238418579
 33
1.899999976158142
  0
3DFACE
  8
0
 10
0.7225024700164795
 20
0.8999998569488525
 30
1.9000000953674316
 11
0.7225025296211243
 21
-1.000000238418579
 31
1.899999976158142
 12
-0.7225020527839661
 22
-1.0
 32
1.899999976158142
 13
-0.7225020527839661
 23
0.8999998569488525
 33
1.9000000953674316
  0
3DFACE
  8
0
 10
0.7225024700164795
 20
0.8999998569488525
 30
1.9000000953674316
 11
-0.7225020527839661
 21
0.8999998569488525
 31
1.9000000953674316
 12
-0.5497744083404541
 22
0.8999998569488525
 32
1.8576328754425049
 13
0.5497748255729675
 23
0.8999998569488525
 33
1.8576328754425049
  0
3DFACE
  8
0
 10
1.0000003576278687
 20
0.8999998569488525
 30
1.899999976158142
 11
0.9999992847442627
 21
-1.0000005960464478
 31
1.899999976158142
 12
0.7225025296211243
 22
-1.000000238418579
 32
1.899999976158142
 13
0.7225024700164795
 23
0.8999998569488525
 33
1.9000000953674316
  0
3DFACE
  8
0
 10
0.6666668057441711
 20
0.8999998569488525
 30
1.6923351287841797
 11
1.0000003576278687
 21
0.8999998569488525
 31
1.899999976158142
 12
0.7225024700164795
 22
0.8999998569488525
 32
1.9000000953674316
 13
0.5497748255729675
 23
0.8999998569488525
 33
1.8576328754425049
  0
3DFACE
  8
0
 10
1.0
 20
0.8999998569488525
 30
0.1624467968940735
 11
1.0000003576278687
 21
0.8999998569488525
 31
1.899999976158142
 12
0.6666668057441711
 22
0.8999998569488525
 32
1.6923351287841797
 13
0.6666668653488159
 23
0.8999998569488525
 33
0.2839255928993225
  0
3DFACE
  8
0
 10
-1.0000003576278687
 20
-0.9999996423721313
 30
1.899999976158142
 11
-0.9999999403953552
 21
0.8999998569488525
 31
1.9000000953674316
 12
-0.7225020527839661
 22
0.8999998569488525
 32
1.9000000953674316
 13
-0.7225020527839661
 23
-1.0
 33
1.899999976158142
  0
3DFACE
  8
0
 10
-0.5497744083404541
 20
0.8999998569488525
 30
1.8576328754425049
 11
-0.7225020527839661
 21
0.8999998569488525
 31
1.9000000953674316
 12
-0.9999999403953552
 22
0.8999998569488525
 32
1.9000000953674316
 13
-0.6666664481163025
 23
0.8999998569488525
 33
1.6923351287841797
  0
3DFACE
  8
0
 10
-0.6666663885116577
 20
0.8999998569488525
 30
0.2839256525039673
 11
-0.6666664481163025
 21
0.8999998569488525
 31
1.6923351287841797
 12
-0.9999999403953552
 22
0.8999998569488525
 32
1.9000000953674316
 13
-0.9999996423721313
 23
0.8999998569488525
 33
0.16244685649871826
  0
3DFACE
  8
0
 10
-0.5497744083404541
 20
0.8999998569488525
 30
0.08508408069610596
 11
-0.9999996423721313
 21
0.8999998569488525
 31
0.038007378578186035
 12
0.9999999403953552
 22
0.8999998569488525
 32
0.038007378578186035
 13
0.5497748851776123
 23
0.8999998569488525
 33
0.08508408069610596
  0
3DFACE
  8
0
 10
0.9999999403953552
 20
0.8999998569488525
 30
0.038007378578186035
 11
1.0
 21
0.8999998569488525
 31
0.1624467968940735
 12
0.6666668653488159
 22
0.8999998569488525
 32
0.2839255928993225
 13
0.5497748851776123
 23
0.8999998569488525
 33
0.08508408069610596
  0
3DFACE
  8
0
 10
-0.9999996423721313
 20
0.8999998569488525
 30
0.038007378578186035
 11
-0.5497744083404541
 21
0.8999998569488525
 31
0.08508408069610596
 12
-0.6666663885116577
 22
0.8999998569488525
 32
0.2839256525039673
 13
-0.9999996423721313
 23
0.8999998569488525
 33
0.16244685649871826
  0
3DFACE
  8
0
 10
0.9999999403953552
 20
-0.9999999403953552
 30
0.03800743818283081
 11
0.9999999403953552
 21
0.8999998569488525
 31
0.038007378578186035
 12
-0.9999996423721313
 22
0.8999998569488525
 32
0.038007378578186035
 13
-1.0000001192092896
 23
-0.9999998211860657
 33
0.03800743818283081
  0
3DFACE
  8
0
 10
0.8962292075157166
 20
1.1437110900878906
 30
1.4814409017562866
 11
0.7004545331001282
 21
1.1437110900878906
 31
1.4814409017562866
 12
0.7004545331001282
 22
1.1437110900878906
 32
1.66703200340271
 13
0.8962292075157166
 23
1.1437110900878906
 33
1.66703200340271
  0
3DFACE
  8
0
 10
0.8962292075157166
 20
1.1437110900878906
 30
1.66703200340271
 11
0.7004545331001282
 21
1.1437110900878906
 31
1.66703200340271
 12
0.7004545331001282
 22
1.0377469062805176
 32
1.7421239614486694
 13
0.8962292075157166
 23
1.0377469062805176
 33
1.7421239614486694
  0
3DFACE
  8
0
 10
0.8962292075157166
 20
1.0377469062805176
 30
1.4050557613372803
 11
0.7004545331001282
 21
1.0377469062805176
 31
1.4050557613372803
 12
0.7004545331001282
 22
1.1437110900878906
 32
1.4814409017562866
 13
0.8962292075157166
 23
1.1437110900878906
 33
1.4814409017562866
  0
3DFACE
  8
0
 10
0.8962292075157166
 20
1.1437110900878906
 30
1.4814409017562866
 11
0.8962292075157166
 21
1.1185338497161865
 31
1.5275962352752686
 12
0.8962292075157166
 22
1.0377469062805176
 32
1.5211257934570312
 13
0.8962292075157166
 23
1.0377469062805176
 33
1.4050557613372803
  0
3DFACE
  8
0
 10
0.8962292075157166
 20
1.1185338497161865
 30
1.6208765506744385
 11
0.8962292075157166
 21
1.1437110900878906
 31
1.66703200340271
 12
0.8962292075157166
 22
1.0377469062805176
 32
1.7421239614486694
 13
0.8962292075157166
 23
1.0377469062805176
 33
1.6273472309112549
  0
3DFACE
  8
0
 10
0.8962292075157166
 20
1.1437110900878906
 30
1.66703200340271
 11
0.8962292075157166
 21
1.1185338497161865
 31
1.6208765506744385
 12
0.8962292075157166
 22
1.1185338497161865
 32
1.5275962352752686
 13
0.8962292075157166
 23
1.1437110900878906
 33
1.4814409017562866
  0
3DFACE
  8
0
 10
0.7004545331001282
 20
1.1185338497161865
 30
1.6208765506744385
 11
0.7004545331001282
 21
1.1437110900878906
 31
1.66703200340271
 12
0.7004545331001282
 22
1.1437110900878906
 32
1.4814409017562866
 13
0.7004545331001282
 23
1.1185338497161865
 33
1.5275962352752686
  0
3DFACE
  8
0
 10
0.7004545331001282
 20
1.0377469062805176
 30
1.6273472309112549
 11
0.7004545331001282
 21
1.0377469062805176
 31
1.7421239614486694
 12
0.7004545331001282
 22
1.1437110900878906
 32
1.66703200340271
 13
0.7004545331001282
 23
1.1185338497161865
 33
1.6208765506744385
  0
3DFACE
  8
0
 10
0.7004545331001282
 20
1.1185338497161865
 30
1.5275962352752686
 11
0.7004545331001282
 21
1.1437110900878906
 31
1.4814409017562866
 12
0.7004545331001282
 22
1.0377469062805176
 32
1.4050557613372803
 13
0.7004545331001282
 23
1.0377469062805176
 33
1.5211257934570312
  0
3DFACE
  8
0
 10
0.8962292075157166
 20
1.0377469062805176
 30
0.23413681983947754
 11
0.7004545331001282
 21
1.0377469062805176
 31
0.23413681983947754
 12
0.7004545331001282
 22
1.1437110900878906
 32
0.30922889709472656
 13
0.8962292075157166
 23
1.1437110900878906
 33
0.3092288374900818
  0
3DFACE
  8
0
 10
0.8962292075157166
 20
1.1437110900878906
 30
0.3092288374900818
 11
0.7004545331001282
 21
1.1437110900878906
 31
0.30922889709472656
 12
0.7004545331001282
 22
1.1437110900878906
 32
0.4948198199272156
 13
0.8962292075157166
 23
1.1437110900878906
 33
0.4948198199272156
  0
3DFACE
  8
0
 10
0.7004545331001282
 20
1.0377469062805176
 30
0.5712052583694458
 11
0.8962292075157166
 21
1.0377469062805176
 31
0.5712052583694458
 12
0.8962292075157166
 22
1.1437110900878906
 32
0.4948198199272156
 13
0.7004545331001282
 23
1.1437110900878906
 33
0.4948198199272156
  0
3DFACE
  8
0
 10
0.8962292075157166
 20
1.0377469062805176
 30
0.45513492822647095
 11
0.8962292075157166
 21
1.1185338497161865
 31
0.4486643671989441
 12
0.8962292075157166
 22
1.1437110900878906
 32
0.4948198199272156
 13
0.8962292075157166
 23
1.0377469062805176
 33
0.5712052583694458
  0
3DFACE
  8
0
 10
0.8962292075157166
 20
1.1185338497161865
 30
0.4486643671989441
 11
0.8962292075157166
 21
1.1185338497161865
 31
0.35538429021835327
 12
0.8962292075157166
 22
1.1437110900878906
 32
0.3092288374900818
 13
0.8962292075157166
 23
1.1437110900878906
 33
0.4948198199272156
  0
3DFACE
  8
0
 10
0.8962292075157166
 20
1.1185338497161865
 30
0.35538429021835327
 11
0.8962292075157166
 21
1.0377469062805176
 31
0.34891366958618164
 12
0.8962292075157166
 22
1.0377469062805176
 32
0.23413681983947754
 13
0.8962292075157166
 23
1.1437110900878906
 33
0.3092288374900818
  0
3DFACE
  8
0
 10
0.7004545331001282
 20
1.0377469062805176
 30
0.34891366958618164
 11
0.7004545331001282
 21
1.1185338497161865
 31
0.35538429021835327
 12
0.7004545331001282
 22
1.1437110900878906
 32
0.30922889709472656
 13
0.7004545331001282
 23
1.0377469062805176
 33
0.23413681983947754
  0
3DFACE
  8
0
 10
0.7004545331001282
 20
1.1185338497161865
 30
0.35538429021835327
 11
0.7004545331001282
 21
1.1185338497161865
 31
0.4486643671989441
 12
0.7004545331001282
 22
1.1437110900878906
 32
0.4948198199272156
 13
0.7004545331001282
 23
1.1437110900878906
 33
0.30922889709472656
  0
3DFACE
  8
0
 10
0.7004545331001282
 20
1.1185338497161865
 30
0.4486643671989441
 11
0.7004545331001282
 21
1.0377469062805176
 31
0.45513492822647095
 12
0.7004545331001282
 22
1.0377469062805176
 32
0.5712052583694458
 13
0.7004545331001282
 23
1.1437110900878906
 33
0.4948198199272156
  0
3DFACE
  8
0
 10
0.7004545331001282
 20
1.0377469062805176
 30
0.45513492822647095
 11
0.7004545331001282
 21
1.1185338497161865
 31
0.4486643671989441
 12
0.8962292075157166
 22
1.1185338497161865
 32
0.4486643671989441
 13
0.8962292075157166
 23
1.0377469062805176
 33
0.45513492822647095
  0
3DFACE
  8
0
 10
0.8962292075157166
 20
1.0377469062805176
 30
1.5211257934570312
 11
0.8962292075157166
 21
1.1185338497161865
 31
1.5275962352752686
 12
0.7004545331001282
 22
1.1185338497161865
 32
1.5275962352752686
 13
0.7004545331001282
 23
1.0377469062805176
 33
1.5211257934570312
  0
3DFACE
  8
0
 10
0.8962292075157166
 20
1.1185338497161865
 30
0.35538429021835327
 11
0.8962292075157166
 21
1.1185338497161865
 31
0.4486643671989441
 12
0.7004545331001282
 22
1.1185338497161865
 32
0.4486643671989441
 13
0.7004545331001282
 23
1.1185338497161865
 33
0.35538429021835327
  0
3DFACE
  8
0
 10
0.8962292075157166
 20
1.0377469062805176
 30
0.34891366958618164
 11
0.8962292075157166
 21
1.1185338497161865
 31
0.35538429021835327
 12
0.7004545331001282
 22
1.1185338497161865
 32
0.35538429021835327
 13
0.7004545331001282
 23
1.0377469062805176
 33
0.34891366958618164
  0
3DFACE
  8
0
 10
0.8962292075157166
 20
1.1185338497161865
 30
1.6208765506744385
 11
0.8962292075157166
 21
1.0377469062805176
 31
1.6273472309112549
 12
0.7004545331001282
 22
1.0377469062805176
 32
1.6273472309112549
 13
0.7004545331001282
 23
1.1185338497161865
 33
1.6208765506744385
  0
3DFACE
  8
0
 10
0.8962292075157166
 20
1.1185338497161865
 30
1.5275962352752686
 11
0.8962292075157166
 21
1.1185338497161865
 31
1.6208765506744385
 12
0.7004545331001282
 22
1.1185338497161865
 32
1.6208765506744385
 13
0.7004545331001282
 23
1.1185338497161865
 33
1.5275962352752686
  0
3DFACE
  8
0
 10
0.343696653842926
 20
1.0565463304519653
 30
1.4058997631072998
 11
0.343696653842926
 21
1.0565463304519653
 31
0.5703610181808472
 12
0.13717329502105713
 22
1.0565463304519653
 32
0.5703611373901367
 13
0.13717341423034668
 23
1.0565463304519653
 33
1.4058998823165894
  0
3DFACE
  8
0
 10
0.5497749447822571
 20
1.0377469062805176
 30
0.08508414030075073
 11
0.5497749447822571
 21
0.9437351822853088
 31
0.08508408069610596
 12
-0.5497744083404541
 22
0.9437351822853088
 32
0.08508408069610596
 13
-0.5497744083404541
 23
1.0377471446990967
 33
0.08508414030075073
  0
3DFACE
  8
0
 10
-0.5497744083404541
 20
1.0377471446990967
 30
0.08508414030075073
 11
-0.5497744083404541
 21
0.9437351822853088
 31
0.08508408069610596
 12
-0.6666663885116577
 22
0.9437351822853088
 32
0.2839256525039673
 13
-0.6666663885116577
 23
1.0377471446990967
 33
0.2839256525039673
  0
3DFACE
  8
0
 10
0.6666668057441711
 20
1.0377466678619385
 30
0.2839256525039673
 11
0.6666668057441711
 21
0.9437351822853088
 31
0.2839255928993225
 12
0.5497749447822571
 22
0.9437351822853088
 32
0.08508408069610596
 13
0.5497749447822571
 23
1.0377469062805176
 33
0.08508414030075073
  0
3DFACE
  8
0
 10
-0.6666663885116577
 20
1.0377471446990967
 30
0.2839256525039673
 11
-0.6666663885116577
 21
0.9437351822853088
 31
0.2839256525039673
 12
-0.6666664481163025
 22
0.9437351822853088
 32
1.6923351287841797
 13
-0.6666664481163025
 23
1.0377469062805176
 33
1.6923351287841797
  0
3DFACE
  8
0
 10
-0.6666664481163025
 20
1.0377469062805176
 30
1.6923351287841797
 11
-0.6666664481163025
 21
0.9437351822853088
 31
1.6923351287841797
 12
-0.5497744083404541
 22
0.9437351822853088
 32
1.8576328754425049
 13
-0.5497744083404541
 23
1.0377469062805176
 33
1.8576328754425049
  0
3DFACE
  8
0
 10
0.6666668057441711
 20
1.0377466678619385
 30
1.6923351287841797
 11
0.6666668057441711
 21
0.9437351822853088
 31
1.6923351287841797
 12
0.6666668057441711
 22
0.9437351822853088
 32
0.2839255928993225
 13
0.6666668057441711
 23
1.0377466678619385
 33
0.2839256525039673
  0
3DFACE
  8
0
 10
0.5497749447822571
 20
1.0377466678619385
 30
1.8576328754425049
 11
0.5497748255729675
 21
0.9437351822853088
 31
1.8576328754425049
 12
0.6666668057441711
 22
0.9437351822853088
 32
1.6923351287841797
 13
0.6666668057441711
 23
1.0377466678619385
 33
1.6923351287841797
  0
3DFACE
  8
0
 10
0.5497748255729675
 20
0.9437351822853088
 30
1.8576328754425049
 11
0.5497749447822571
 21
1.0377466678619385
 31
1.8576328754425049
 12
-0.5497744083404541
 22
1.0377469062805176
 32
1.8576328754425049
 13
-0.5497744083404541
 23
0.9437351822853088
 33
1.8576328754425049
  0
3DFACE
  8
0
 10
0.6666668057441711
 20
1.0377466678619385
 30
0.2839256525039673
 11
0.5497749447822571
 21
1.0377469062805176
 31
0.08508414030075073
 12
-0.5497744083404541
 22
1.0377471446990967
 32
0.08508414030075073
 13
-0.6666663885116577
 23
1.0377471446990967
 33
0.2839256525039673
  0
3DFACE
  8
0
 10
0.6666668057441711
 20
1.0377466678619385
 30
1.6923351287841797
 11
0.6666668057441711
 21
1.0377466678619385
 31
0.2839256525039673
 12
-0.6666663885116577
 22
1.0377471446990967
 32
0.2839256525039673
 13
-0.6666664481163025
 23
1.0377469062805176
 33
1.6923351287841797
  0
3DFACE
  8
0
 10
0.5497749447822571
 20
1.0377466678619385
 30
1.8576328754425049
 11
0.6666668057441711
 21
1.0377466678619385
 31
1.6923351287841797
 12
-0.6666664481163025
 22
1.0377469062805176
 32
1.6923351287841797
 13
-0.5497744083404541
 23
1.0377469062805176
 33
1.8576328754425049
  0
3DFACE
  8
0
 10
-0.6451658606529236
 20
1.0100175142288208
 30
1.2433018684387207
 11
-0.6451658606529236
 21
0.9761427640914917
 31
1.2433018684387207
 12
-0.6956624984741211
 22
0.9761427640914917
 32
1.2433018684387207
 13
-0.6956624984741211
 23
1.0100175142288208
 33
1.2433018684387207
  0
3DFACE
  8
0
 10
-0.6451658010482788
 20
0.9761427640914917
 30
0.7329589128494263
 11
-0.6451658010482788
 21
1.0100175142288208
 31
0.7329589128494263
 12
-0.6956624388694763
 22
1.0100175142288208
 32
0.7329589128494263
 13
-0.6956624388694763
 23
0.9761427640914917
 33
0.7329589128494263
  0
3DFACE
  8
0
 10
-0.6451658606529236
 20
1.0100173950195312
 30
1.671898603439331
 11
-0.6451658606529236
 21
1.0100175142288208
 31
1.2433018684387207
 12
-0.6956624984741211
 22
1.0100175142288208
 32
1.2433018684387207
 13
-0.6956624984741211
 23
1.0100173950195312
 33
1.671898603439331
  0
3DFACE
  8
0
 10
-0.6451658010482788
 20
1.0100175142288208
 30
0.7329589128494263
 11
-0.6451658010482788
 21
1.0100175142288208
 31
0.3043621778488159
 12
-0.6956624388694763
 22
1.0100175142288208
 32
0.3043621778488159
 13
-0.6956624388694763
 23
1.0100175142288208
 33
0.7329589128494263
  0
3DFACE
  8
0
 10
-0.6451658010482788
 20
1.0100175142288208
 30
0.3043621778488159
 11
-0.6451658010482788
 21
0.9761427640914917
 31
0.3043621778488159
 12
-0.6956624388694763
 22
0.9761427640914917
 32
0.3043621778488159
 13
-0.6956624388694763
 23
1.0100175142288208
 33
0.3043621778488159
  0
3DFACE
  8
0
 10
-0.6451658606529236
 20
0.9761427640914917
 30
1.671898603439331
 11
-0.6451658606529236
 21
1.0100173950195312
 31
1.671898603439331
 12
-0.6956624984741211
 22
1.0100173950195312
 32
1.671898603439331
 13
-0.6956624984741211
 23
0.9761427640914917
 33
1.671898603439331
  0
3DFACE
  8
0
 10
-0.6956624984741211
 20
1.0100175142288208
 30
1.2433018684387207
 11
-0.6956624984741211
 21
0.9761427640914917
 31
1.2433018684387207
 12
-0.6956624984741211
 22
0.9761427640914917
 32
1.671898603439331
 13
-0.6956624984741211
 23
1.0100173950195312
 33
1.671898603439331
  0
3DFACE
  8
0
 10
-0.6956624388694763
 20
1.0100175142288208
 30
0.3043621778488159
 11
-0.6956624388694763
 21
0.9761427640914917
 31
0.3043621778488159
 12
-0.6956624388694763
 22
0.9761427640914917
 32
0.7329589128494263
 13
-0.6956624388694763
 23
1.0100175142288208
 33
0.7329589128494263
  0
3DFACE
  8
0
 10
0.2807273864746094
 20
1.0565464496612549
 30
0.9715584516525269
 11
0.2807273864746094
 21
1.0846749544143677
 31
0.9715584516525269
 12
0.25720787048339844
 22
1.0846749544143677
 32
0.9479212760925293
 13
0.25720787048339844
 23
1.0565464496612549
 33
0.9479212760925293
  0
3DFACE
  8
0
 10
0.2806440591812134
 20
1.0565464496612549
 30
1.0049033164978027
 11
0.2806440591812134
 21
1.0846749544143677
 31
1.0049033164978027
 12
0.2807273864746094
 22
1.0846749544143677
 32
0.9715584516525269
 13
0.2807273864746094
 23
1.0565464496612549
 33
0.9715584516525269
  0
3DFACE
  8
0
 10
0.2806440591812134
 20
1.0846749544143677
 30
1.0049033164978027
 11
0.2806440591812134
 21
1.0565464496612549
 31
1.0049033164978027
 12
0.2570068836212158
 22
1.0565464496612549
 32
1.0284227132797241
 13
0.2570068836212158
 23
1.0846749544143677
 33
1.0284227132797241
  0
3DFACE
  8
0
 10
0.2570068836212158
 20
1.0846749544143677
 30
1.0284227132797241
 11
0.2570068836212158
 21
1.0565464496612549
 31
1.0284227132797241
 12
0.2236621379852295
 22
1.0565464496612549
 32
1.0283395051956177
 13
0.2236621379852295
 23
1.0846749544143677
 33
1.0283395051956177
  0
3DFACE
  8
0
 10
0.2236621379852295
 20
1.0846749544143677
 30
1.0283395051956177
 11
0.2236621379852295
 21
1.0565464496612549
 31
1.0283395051956177
 12
0.20014262199401855
 22
1.0565464496612549
 32
1.0047023296356201
 13
0.20014262199401855
 23
1.0846749544143677
 33
1.0047023296356201
  0
3DFACE
  8
0
 10
0.20014262199401855
 20
1.0846749544143677
 30
1.0047023296356201
 11
0.20014262199401855
 21
1.0565464496612549
 31
1.0047023296356201
 12
0.200225830078125
 22
1.0565464496612549
 32
0.9713574647903442
 13
0.200225830078125
 23
1.0846749544143677
 33
0.9713574647903442
  0
3DFACE
  8
0
 10
0.200225830078125
 20
1.0846749544143677
 30
0.9713574647903442
 11
0.200225830078125
 21
1.0565464496612549
 31
0.9713574647903442
 12
0.2238631248474121
 22
1.0565464496612549
 32
0.9478380084037781
 13
0.2238631248474121
 23
1.0846749544143677
 33
0.9478380084037781
  0
3DFACE
  8
0
 10
0.2238631248474121
 20
1.0846749544143677
 30
0.9478380084037781
 11
0.2238631248474121
 21
1.0565464496612549
 31
0.9478380084037781
 12
0.25720787048339844
 22
1.0565464496612549
 32
0.9479212760925293
 13
0.25720787048339844
 23
1.0846749544143677
 33
0.9479212760925293
  0
3DFACE
  8
0
 10
0.2659386396408081
 20
1.0846749544143677
 30
0.9269281029701233
 11
0.2659386396408081
 21
1.0565464496612549
 31
0.9269281029701233
 12
0.21523702144622803
 22
1.0565464496612549
 32
0.9269281029701233
 13
0.21523702144622803
 23
1.0846749544143677
 33
0.9269281029701233
  0
3DFACE
  8
0
 10
0.21523702144622803
 20
1.0846749544143677
 30
0.9269281029701233
 11
0.21523702144622803
 21
1.0565464496612549
 31
0.9269281029701233
 12
0.17923271656036377
 22
1.0565464496612549
 32
0.9626267552375793
 13
0.17923271656036377
 23
1.0846749544143677
 33
0.9626267552375793
  0
3DFACE
  8
0
 10
0.17923271656036377
 20
1.0846749544143677
 30
0.9626267552375793
 11
0.17923271656036377
 21
1.0565464496612549
 31
0.9626267552375793
 12
0.17923271656036377
 22
1.0565464496612549
 32
1.0133284330368042
 13
0.17923271656036377
 23
1.0846749544143677
 33
1.0133284330368042
  0
3DFACE
  8
0
 10
0.17923271656036377
 20
1.0846749544143677
 30
1.0133284330368042
 11
0.17923271656036377
 21
1.0565464496612549
 31
1.0133284330368042
 12
0.21493136882781982
 22
1.0565464496612549
 32
1.0493327379226685
 13
0.21493136882781982
 23
1.0846749544143677
 33
1.0493327379226685
  0
3DFACE
  8
0
 10
0.21493136882781982
 20
1.0846749544143677
 30
1.0493327379226685
 11
0.21493136882781982
 21
1.0565464496612549
 31
1.0493327379226685
 12
0.2656329870223999
 22
1.0565464496612549
 32
1.0493327379226685
 13
0.2656329870223999
 23
1.0846749544143677
 33
1.0493327379226685
  0
3DFACE
  8
0
 10
0.2656329870223999
 20
1.0846749544143677
 30
1.0493327379226685
 11
0.2656329870223999
 21
1.0565464496612549
 31
1.0493327379226685
 12
0.30163729190826416
 22
1.0565464496612549
 32
1.0136339664459229
 13
0.30163729190826416
 23
1.0846749544143677
 33
1.0136339664459229
  0
3DFACE
  8
0
 10
0.30163729190826416
 20
1.0846749544143677
 30
1.0136339664459229
 11
0.30163729190826416
 21
1.0565464496612549
 31
1.0136339664459229
 12
0.30163729190826416
 22
1.0565464496612549
 32
0.9629323482513428
 13
0.30163729190826416
 23
1.0846749544143677
 33
0.9629323482513428
  0
3DFACE
  8
0
 10
0.30163729190826416
 20
1.0846749544143677
 30
0.9629323482513428
 11
0.30163729190826416
 21
1.0565464496612549
 31
0.9629323482513428
 12
0.2659386396408081
 22
1.0565464496612549
 32
0.9269281029701233
 13
0.2659386396408081
 23
1.0846749544143677
 33
0.9269281029701233
  0
3DFACE
  8
0
 10
0.2659386396408081
 20
1.0846749544143677
 30
0.9269281029701233
 11
0.21523702144622803
 21
1.0846749544143677
 31
0.9269281029701233
 12
0.2238631248474121
 22
1.0846749544143677
 32
0.9478380084037781
 13
0.25720787048339844
 23
1.0846749544143677
 33
0.9479212760925293
  0
3DFACE
  8
0
 10
0.21523702144622803
 20
1.0846749544143677
 30
0.9269281029701233
 11
0.17923271656036377
 21
1.0846749544143677
 31
0.9626267552375793
 12
0.200225830078125
 22
1.0846749544143677
 32
0.9713574647903442
 13
0.2238631248474121
 23
1.0846749544143677
 33
0.9478380084037781
  0
3DFACE
  8
0
 10
0.17923271656036377
 20
1.0846749544143677
 30
0.9626267552375793
 11
0.17923271656036377
 21
1.0846749544143677
 31
1.0133284330368042
 12
0.20014262199401855
 22
1.0846749544143677
 32
1.0047023296356201
 13
0.200225830078125
 23
1.0846749544143677
 33
0.9713574647903442
  0
3DFACE
  8
0
 10
0.17923271656036377
 20
1.0846749544143677
 30
1.0133284330368042
 11
0.21493136882781982
 21
1.0846749544143677
 31
1.0493327379226685
 12
0.2236621379852295
 22
1.0846749544143677
 32
1.0283395051956177
 13
0.20014262199401855
 23
1.0846749544143677
 33
1.0047023296356201
  0
3DFACE
  8
0
 10
0.21493136882781982
 20
1.0846749544143677
 30
1.0493327379226685
 11
0.2656329870223999
 21
1.0846749544143677
 31
1.0493327379226685
 12
0.2570068836212158
 22
1.0846749544143677
 32
1.0284227132797241
 13
0.2236621379852295
 23
1.0846749544143677
 33
1.0283395051956177
  0
3DFACE
  8
0
 10
0.2656329870223999
 20
1.0846749544143677
 30
1.0493327379226685
 11
0.30163729190826416
 21
1.0846749544143677
 31
1.0136339664459229
 12
0.2806440591812134
 22
1.0846749544143677
 32
1.0049033164978027
 13
0.2570068836212158
 23
1.0846749544143677
 33
1.0284227132797241
  0
3DFACE
  8
0
 10
0.30163729190826416
 20
1.0846749544143677
 30
1.0136339664459229
 11
0.30163729190826416
 21
1.0846749544143677
 31
0.9629323482513428
 12
0.2807273864746094
 22
1.0846749544143677
 32
0.9715584516525269
 13
0.2806440591812134
 23
1.0846749544143677
 33
1.0049033164978027
  0
3DFACE
  8
0
 10
0.30163729190826416
 20
1.0846749544143677
 30
0.9629323482513428
 11
0.2659386396408081
 21
1.0846749544143677
 31
0.9269281029701233
 12
0.25720787048339844
 22
1.0846749544143677
 32
0.9479212760925293
 13
0.2807273864746094
 23
1.0846749544143677
 33
0.9715584516525269
  0
3DFACE
  8
0
 10
0.13717329502105713
 20
1.0565463304519653
 30
0.5703611373901367
 11
0.10280370712280273
 21
1.0377466678619385
 31
0.5047606825828552
 12
0.10280376672744751
 22
1.0377466678619385
 32
1.4715003967285156
 13
0.13717341423034668
 23
1.0565463304519653
 33
1.4058998823165894
  0
3DFACE
  8
0
 10
0.3780662417411804
 20
1.0377466678619385
 30
1.4715001583099365
 11
0.343696653842926
 21
1.0565463304519653
 31
1.4058997631072998
 12
0.13717341423034668
 22
1.0565463304519653
 32
1.4058998823165894
 13
0.10280376672744751
 23
1.0377466678619385
 33
1.4715003967285156
  0
3DFACE
  8
0
 10
0.343696653842926
 20
1.0565463304519653
 30
1.4058997631072998
 11
0.3780662417411804
 21
1.0377466678619385
 31
1.4715001583099365
 12
0.3780662417411804
 22
1.0377466678619385
 32
0.5047605633735657
 13
0.343696653842926
 23
1.0565463304519653
 33
0.5703610181808472
  0
3DFACE
  8
0
 10
0.343696653842926
 20
1.0565463304519653
 30
0.5703610181808472
 11
0.3780662417411804
 21
1.0377466678619385
 31
0.5047605633735657
 12
0.10280370712280273
 22
1.0377466678619385
 32
0.5047606825828552
 13
0.13717329502105713
 23
1.0565463304519653
 33
0.5703611373901367
  0
3DFACE
  8
0
 10
0.3809688687324524
 20
1.047389268875122
 30
0.49219438433647156
 11
0.3809688687324524
 21
1.137818455696106
 31
0.474160373210907
 12
-0.46283531188964844
 22
1.1378188133239746
 32
0.474160373210907
 13
-0.6364223957061768
 23
1.0377469062805176
 33
0.49219438433647156
  0
3DFACE
  8
0
 10
-0.6364225149154663
 20
1.0377469062805176
 30
1.4840662479400635
 11
-0.4628353714942932
 21
1.1378188133239746
 31
1.5021002292633057
 12
0.3809688687324524
 22
1.137818455696106
 32
1.5021002292633057
 13
0.3809688687324524
 23
1.047389268875122
 33
1.4840662479400635
  0
3DFACE
  8
0
 10
-0.6364223957061768
 20
1.0377469062805176
 30
0.49219438433647156
 11
-0.46283531188964844
 21
1.1378188133239746
 31
0.474160373210907
 12
-0.46283531188964844
 22
1.1378189325332642
 32
0.3298882842063904
 13
-0.6364223957061768
 23
1.0377469062805176
 33
0.31185418367385864
  0
3DFACE
  8
0
 10
-0.6364225149154663
 20
1.0377469062805176
 30
1.6644065380096436
 11
-0.4628353714942932
 21
1.137818694114685
 31
1.6463725566864014
 12
-0.4628353714942932
 22
1.1378188133239746
 32
1.5021002292633057
 13
-0.6364225149154663
 23
1.0377469062805176
 33
1.4840662479400635
  0
3DFACE
  8
0
 10
0.3809688687324524
 20
1.047389268875122
 30
1.6644065380096436
 11
0.3809688687324524
 21
1.137818455696106
 31
1.6463725566864014
 12
-0.4628353714942932
 22
1.137818694114685
 32
1.6463725566864014
 13
-0.6364225149154663
 23
1.0377469062805176
 33
1.6644065380096436
  0
3DFACE
  8
0
 10
-0.6364223957061768
 20
1.0377469062805176
 30
0.31185418367385864
 11
-0.46283531188964844
 21
1.1378189325332642
 31
0.3298882842063904
 12
0.3809688687324524
 22
1.137818455696106
 32
0.3298882842063904
 13
0.3809688687324524
 23
1.047389268875122
 33
0.31185418367385864
  0
3DFACE
  8
0
 10
0.3809688687324524
 20
1.137818455696106
 30
0.474160373210907
 11
0.3809688687324524
 21
1.137818455696106
 31
0.3298882842063904
 12
-0.46283531188964844
 22
1.1378189325332642
 32
0.3298882842063904
 13
-0.46283531188964844
 23
1.1378188133239746
 33
0.474160373210907
  0
3DFACE
  8
0
 10
0.3809688687324524
 20
1.137818455696106
 30
1.6463725566864014
 11
0.3809688687324524
 21
1.137818455696106
 31
1.5021002292633057
 12
-0.4628353714942932
 22
1.1378188133239746
 32
1.5021002292633057
 13
-0.4628353714942932
 23
1.137818694114685
 33
1.6463725566864014
  0
3DFACE
  8
0
 10
0.3809688687324524
 20
1.137818455696106
 30
1.6463725566864014
 11
0.3809688687324524
 21
1.1185338497161865
 31
1.6208765506744385
 12
0.3809688687324524
 22
1.1185338497161865
 32
1.5275962352752686
 13
0.3809688687324524
 23
1.137818455696106
 33
1.5021002292633057
  0
3DFACE
  8
0
 10
0.3809688687324524
 20
1.047389268875122
 30
1.6644065380096436
 11
0.3809688687324524
 21
1.047389268875122
 31
1.6273472309112549
 12
0.3809688687324524
 22
1.1185338497161865
 32
1.6208765506744385
 13
0.3809688687324524
 23
1.137818455696106
 33
1.6463725566864014
  0
3DFACE
  8
0
 10
0.3809688687324524
 20
1.137818455696106
 30
0.3298882842063904
 11
0.3809688687324524
 21
1.1185338497161865
 31
0.35538429021835327
 12
0.3809688687324524
 22
1.047389268875122
 32
0.3489137291908264
 13
0.3809688687324524
 23
1.047389268875122
 33
0.31185418367385864
  0
3DFACE
  8
0
 10
0.3809688687324524
 20
1.137818455696106
 30
0.474160373210907
 11
0.3809688687324524
 21
1.1185338497161865
 31
0.4486643671989441
 12
0.3809688687324524
 22
1.1185338497161865
 32
0.35538429021835327
 13
0.3809688687324524
 23
1.137818455696106
 33
0.3298882842063904
  0
3DFACE
  8
0
 10
0.3809688687324524
 20
1.137818455696106
 30
1.5021002292633057
 11
0.3809688687324524
 21
1.1185338497161865
 31
1.5275962352752686
 12
0.3809688687324524
 22
1.047389268875122
 32
1.5211257934570312
 13
0.3809688687324524
 23
1.047389268875122
 33
1.4840662479400635
  0
3DFACE
  8
0
 10
0.3809688687324524
 20
1.047389268875122
 30
0.49219438433647156
 11
0.3809688687324524
 21
1.047389268875122
 31
0.45513492822647095
 12
0.3809688687324524
 22
1.1185338497161865
 32
0.4486643671989441
 13
0.3809688687324524
 23
1.137818455696106
 33
0.474160373210907
  0
3DFACE
  8
0
 10
-0.5778201818466187
 20
0.7991236448287964
 30
1.5973684787750244
 11
0.5778205990791321
 21
0.7991236448287964
 31
1.597368597984314
 12
0.476506769657135
 22
0.7985126376152039
 32
1.7406373023986816
 13
-0.4765062928199768
 23
0.7985126376152039
 33
1.740637183189392
  0
3DFACE
  8
0
 10
-0.5778201222419739
 20
0.7991236448287964
 30
0.37665700912475586
 11
0.5778205990791321
 21
0.7991236448287964
 31
0.3766569495201111
 12
0.5778205990791321
 22
0.7991236448287964
 32
1.597368597984314
 13
-0.5778201818466187
 23
0.7991236448287964
 33
1.5973684787750244
  0
3DFACE
  8
0
 10
-0.4765062928199768
 20
0.7985126376152039
 30
0.20431488752365112
 11
0.476506769657135
 21
0.7985126376152039
 31
0.20431488752365112
 12
0.5778205990791321
 22
0.7991236448287964
 32
0.3766569495201111
 13
-0.5778201222419739
 23
0.7991236448287964
 33
0.37665700912475586
  0
3DFACE
  8
0
 10
-0.5497744083404541
 20
0.9437351822853088
 30
0.08508408069610596
 11
0.5497749447822571
 21
0.9437351822853088
 31
0.08508408069610596
 12
0.476506769657135
 22
0.7985126376152039
 32
0.20431488752365112
 13
-0.4765062928199768
 23
0.7985126376152039
 33
0.20431488752365112
  0
3DFACE
  8
0
 10
-0.6666663885116577
 20
0.9437351822853088
 30
0.2839256525039673
 11
-0.5497744083404541
 21
0.9437351822853088
 31
0.08508408069610596
 12
-0.4765062928199768
 22
0.7985126376152039
 32
0.20431488752365112
 13
-0.5778201222419739
 23
0.7991236448287964
 33
0.37665700912475586
  0
3DFACE
  8
0
 10
0.5497749447822571
 20
0.9437351822853088
 30
0.08508408069610596
 11
0.6666668057441711
 21
0.9437351822853088
 31
0.2839255928993225
 12
0.5778205990791321
 22
0.7991236448287964
 32
0.3766569495201111
 13
0.476506769657135
 23
0.7985126376152039
 33
0.20431488752365112
  0
3DFACE
  8
0
 10
-0.6666664481163025
 20
0.9437351822853088
 30
1.6923351287841797
 11
-0.6666663885116577
 21
0.9437351822853088
 31
0.2839256525039673
 12
-0.5778201222419739
 22
0.7991236448287964
 32
0.37665700912475586
 13
-0.5778201818466187
 23
0.7991236448287964
 33
1.5973684787750244
  0
3DFACE
  8
0
 10
-0.5497744083404541
 20
0.9437351822853088
 30
1.8576328754425049
 11
-0.6666664481163025
 21
0.9437351822853088
 31
1.6923351287841797
 12
-0.5778201818466187
 22
0.7991236448287964
 32
1.5973684787750244
 13
-0.4765062928199768
 23
0.7985126376152039
 33
1.740637183189392
  0
3DFACE
  8
0
 10
0.6666668057441711
 20
0.9437351822853088
 30
0.2839255928993225
 11
0.6666668057441711
 21
0.9437351822853088
 31
1.6923351287841797
 12
0.5778205990791321
 22
0.7991236448287964
 32
1.597368597984314
 13
0.5778205990791321
 23
0.7991236448287964
 33
0.3766569495201111
  0
3DFACE
  8
0
 10
0.6666668057441711
 20
0.9437351822853088
 30
1.6923351287841797
 11
0.5497748255729675
 21
0.9437351822853088
 31
1.8576328754425049
 12
0.476506769657135
 22
0.7985126376152039
 32
1.7406373023986816
 13
0.5778205990791321
 23
0.7991236448287964
 33
1.597368597984314
  0
3DFACE
  8
0
 10
0.5497748255729675
 20
0.9437351822853088
 30
1.8576328754425049
 11
-0.5497744083404541
 21
0.9437351822853088
 31
1.8576328754425049
 12
-0.4765062928199768
 22
0.7985126376152039
 32
1.740637183189392
 13
0.476506769657135
 23
0.7985126376152039
 33
1.7406373023986816
  0
3DFACE
  8
0
 10
0.343696653842926
 20
0.7806779146194458
 30
0.5703610181808472
 11
0.13717329502105713
 21
0.7806779146194458
 31
0.5703611373901367
 12
0.10280370712280273
 22
0.7994775772094727
 32
0.5047606825828552
 13
0.3780662417411804
 23
0.7994775772094727
 33
0.5047605633735657
  0
3DFACE
  8
0
 10
0.343696653842926
 20
0.7806779146194458
 30
1.4058997631072998
 11
0.343696653842926
 21
0.7806779146194458
 31
0.5703610181808472
 12
0.3780662417411804
 22
0.7994775772094727
 32
0.5047605633735657
 13
0.3780662417411804
 23
0.7994775772094727
 33
1.4715001583099365
  0
3DFACE
  8
0
 10
0.3780662417411804
 20
0.7994775772094727
 30
1.4715001583099365
 11
0.10280376672744751
 21
0.7994775772094727
 31
1.4715003967285156
 12
0.13717341423034668
 22
0.7806779146194458
 32
1.4058998823165894
 13
0.343696653842926
 23
0.7806779146194458
 33
1.4058997631072998
  0
3DFACE
  8
0
 10
0.13717329502105713
 20
0.7806779146194458
 30
0.5703611373901367
 11
0.13717341423034668
 21
0.7806779146194458
 31
1.4058998823165894
 12
0.10280376672744751
 22
0.7994775772094727
 32
1.4715003967285156
 13
0.10280370712280273
 23
0.7994775772094727
 33
0.5047606825828552
  0
3DFACE
  8
0
 10
0.343696653842926
 20
0.7806779146194458
 30
1.4058997631072998
 11
0.13717341423034668
 21
0.7806779146194458
 31
1.4058998823165894
 12
0.13717329502105713
 22
0.7806779146194458
 32
0.5703611373901367
 13
0.343696653842926
 23
0.7806779146194458
 33
0.5703610181808472
  0
3DFACE
  8
0
 10
0.9817492365837097
 20
1.0377469062805176
 30
1.6273472309112549
 11
0.33300286531448364
 21
1.0377469062805176
 31
1.6273472309112549
 12
0.33300286531448364
 22
1.0377469062805176
 32
1.5211257934570312
 13
0.9817492365837097
 23
1.0377469062805176
 33
1.5211257934570312
  0
3DFACE
  8
0
 10
0.9817492365837097
 20
1.0377469062805176
 30
0.45513492822647095
 11
0.33300286531448364
 21
1.0377469062805176
 31
0.45513492822647095
 12
0.33300286531448364
 22
1.0377469062805176
 32
0.3489137291908264
 13
0.9817492365837097
 23
1.0377469062805176
 33
0.3489137291908264
  0
3DFACE
  8
0
 10
0.33300286531448364
 20
1.0377469062805176
 30
0.45513492822647095
 11
0.9817492365837097
 21
1.0377469062805176
 31
0.45513492822647095
 12
0.8321244120597839
 22
1.1185338497161865
 32
0.4486643671989441
 13
0.33300286531448364
 23
1.1185338497161865
 33
0.4486643671989441
  0
3DFACE
  8
0
 10
0.9817492365837097
 20
1.0377469062805176
 30
1.5211257934570312
 11
0.33300286531448364
 21
1.0377469062805176
 31
1.5211257934570312
 12
0.33300286531448364
 22
1.1185338497161865
 32
1.5275962352752686
 13
0.8321244120597839
 23
1.1185338497161865
 33
1.5275962352752686
  0
3DFACE
  8
0
 10
0.8321244120597839
 20
1.1185338497161865
 30
0.35538429021835327
 11
0.33300286531448364
 21
1.1185338497161865
 31
0.35538429021835327
 12
0.33300286531448364
 22
1.1185338497161865
 32
0.4486643671989441
 13
0.8321244120597839
 23
1.1185338497161865
 33
0.4486643671989441
  0
3DFACE
  8
0
 10
0.9817492365837097
 20
1.0377469062805176
 30
0.3489137291908264
 11
0.33300286531448364
 21
1.0377469062805176
 31
0.3489137291908264
 12
0.33300286531448364
 22
1.1185338497161865
 32
0.35538429021835327
 13
0.8321244120597839
 23
1.1185338497161865
 33
0.35538429021835327
  0
3DFACE
  8
0
 10
0.8321244120597839
 20
1.1185338497161865
 30
1.6208765506744385
 11
0.33300286531448364
 21
1.1185338497161865
 31
1.6208765506744385
 12
0.33300286531448364
 22
1.0377469062805176
 32
1.6273472309112549
 13
0.9817492365837097
 23
1.0377469062805176
 33
1.6273472309112549
  0
3DFACE
  8
0
 10
0.8321244120597839
 20
1.1185338497161865
 30
1.5275962352752686
 11
0.33300286531448364
 21
1.1185338497161865
 31
1.5275962352752686
 12
0.33300286531448364
 22
1.1185338497161865
 32
1.6208765506744385
 13
0.8321244120597839
 23
1.1185338497161865
 33
1.6208765506744385
  0
3DFACE
  8
0
 10
0.9817492365837097
 20
1.0377469062805176
 30
1.5211257934570312
 11
0.8321244120597839
 21
1.1185338497161865
 31
1.5275962352752686
 12
0.8321244120597839
 22
1.1185338497161865
 32
1.6208765506744385
 13
0.9817492365837097
 23
1.0377469062805176
 33
1.6273472309112549
  0
3DFACE
  8
0
 10
0.9817492365837097
 20
1.0377469062805176
 30
0.3489137291908264
 11
0.8321244120597839
 21
1.1185338497161865
 31
0.35538429021835327
 12
0.8321244120597839
 22
1.1185338497161865
 32
0.4486643671989441
 13
0.9817492365837097
 23
1.0377469062805176
 33
0.45513492822647095
  0
3DFACE
  8
0
 10
0.3506820797920227
 20
1.1334134340286255
 30
0.7238388061523438
 11
0.5052739381790161
 21
1.1334134340286255
 31
0.8792043328285217
 12
0.5052739381790161
 22
1.1905977725982666
 32
0.8792043328285217
 13
0.3506820797920227
 23
1.1905977725982666
 33
0.7238388061523438
  0
3DFACE
  8
0
 10
0.5052739381790161
 20
1.1334134340286255
 30
0.8792043328285217
 11
0.5047266483306885
 21
1.1334134340286255
 31
1.0983774662017822
 12
0.5047266483306885
 22
1.190597653388977
 32
1.0983774662017822
 13
0.5052739381790161
 23
1.1905977725982666
 33
0.8792043328285217
  0
3DFACE
  8
0
 10
0.5047266483306885
 20
1.1334134340286255
 30
1.0983774662017822
 11
0.3493611216545105
 21
1.1334134340286255
 31
1.2529693841934204
 12
0.3493611216545105
 22
1.190597653388977
 32
1.2529693841934204
 13
0.5047266483306885
 23
1.190597653388977
 33
1.0983774662017822
  0
3DFACE
  8
0
 10
0.3493611216545105
 20
1.1334134340286255
 30
1.2529693841934204
 11
0.1301880031824112
 21
1.1334134340286255
 31
1.2524219751358032
 12
0.1301880031824112
 22
1.190597653388977
 32
1.2524219751358032
 13
0.3493611216545105
 23
1.190597653388977
 33
1.2529693841934204
  0
3DFACE
  8
0
 10
0.1301880031824112
 20
1.1334134340286255
 30
1.2524219751358032
 11
-0.024403899908065796
 21
1.1334134340286255
 31
1.0970563888549805
 12
-0.024403899908065796
 22
1.190597653388977
 32
1.0970563888549805
 13
0.1301880031824112
 23
1.190597653388977
 33
1.2524219751358032
  0
3DFACE
  8
0
 10
-0.024403899908065796
 20
1.1334134340286255
 30
1.0970563888549805
 11
-0.023856550455093384
 21
1.1334134340286255
 31
0.8778833746910095
 12
-0.023856550455093384
 22
1.1905977725982666
 32
0.8778833746910095
 13
-0.024403899908065796
 23
1.190597653388977
 33
1.0970563888549805
  0
3DFACE
  8
0
 10
-0.023856550455093384
 20
1.1334134340286255
 30
0.8778833746910095
 11
0.1315089613199234
 21
1.1334134340286255
 31
0.7232915163040161
 12
0.1315089613199234
 22
1.1905977725982666
 32
0.7232915163040161
 13
-0.023856550455093384
 23
1.1905977725982666
 33
0.8778833746910095
  0
3DFACE
  8
0
 10
0.1315089613199234
 20
1.1334134340286255
 30
0.7232915163040161
 11
0.3506820797920227
 21
1.1334134340286255
 31
0.7238388061523438
 12
0.3506820797920227
 22
1.1905977725982666
 32
0.7238388061523438
 13
0.1315089613199234
 23
1.1905977725982666
 33
0.7232915163040161
  0
3DFACE
  8
0
 10
0.3738328218460083
 20
1.1316568851470947
 30
0.668340265750885
 11
0.3618791699409485
 21
1.1221972703933716
 31
0.6969963312149048
 12
0.12044604867696762
 22
1.1221972703933716
 32
0.6963934898376465
 13
0.10863539576530457
 23
1.1316568851470947
 33
0.6676774621009827
  0
3DFACE
  8
0
 10
0.3618791699409485
 20
1.1221972703933716
 30
0.6969963312149048
 11
0.3506820797920227
 21
1.1334134340286255
 31
0.7238388061523438
 12
0.1315089613199234
 22
1.1334134340286255
 32
0.7232915163040161
 13
0.12044604867696762
 23
1.1221972703933716
 33
0.6963934898376465
  0
3DFACE
  8
0
 10
0.10863539576530457
 20
1.1316568851470947
 30
0.6676774621009827
 11
0.12044604867696762
 21
1.1221972703933716
 31
0.6963934898376465
 12
-0.05069902539253235
 22
1.1221972703933716
 32
0.8666862845420837
 13
-0.07935509085655212
 23
1.1316568851470947
 33
0.8547326326370239
  0
3DFACE
  8
0
 10
0.12044604867696762
 20
1.1221972703933716
 30
0.6963934898376465
 11
0.1315089613199234
 21
1.1334134340286255
 31
0.7232915163040161
 12
-0.023856550455093384
 22
1.1334134340286255
 32
0.8778833746910095
 13
-0.05069902539253235
 23
1.1221972703933716
 33
0.8666862845420837
  0
3DFACE
  8
0
 10
-0.07935509085655212
 20
1.1316568851470947
 30
0.8547326326370239
 11
-0.05069902539253235
 21
1.1221972703933716
 31
0.8666862845420837
 12
-0.05130186676979065
 22
1.1221972703933716
 32
1.108119249343872
 13
-0.08001789450645447
 23
1.1316568851470947
 33
1.1199300289154053
  0
3DFACE
  8
0
 10
-0.05069902539253235
 20
1.1221972703933716
 30
0.8666862845420837
 11
-0.023856550455093384
 21
1.1334134340286255
 31
0.8778833746910095
 12
-0.024403899908065796
 22
1.1334134340286255
 32
1.0970563888549805
 13
-0.05130186676979065
 23
1.1221972703933716
 33
1.108119249343872
  0
3DFACE
  8
0
 10
-0.08001789450645447
 20
1.1316568851470947
 30
1.1199300289154053
 11
-0.05130186676979065
 21
1.1221972703933716
 31
1.108119249343872
 12
0.11899089813232422
 22
1.122197151184082
 32
1.2792644500732422
 13
0.1070372611284256
 23
1.1316567659378052
 33
1.3079205751419067
  0
3DFACE
  8
0
 10
-0.05130186676979065
 20
1.1221972703933716
 30
1.108119249343872
 11
-0.024403899908065796
 21
1.1334134340286255
 31
1.0970563888549805
 12
0.1301880031824112
 22
1.1334134340286255
 32
1.2524219751358032
 13
0.11899089813232422
 23
1.122197151184082
 33
1.2792644500732422
  0
3DFACE
  8
0
 10
0.1070372611284256
 20
1.1316567659378052
 30
1.3079205751419067
 11
0.11899089813232422
 21
1.122197151184082
 31
1.2792644500732422
 12
0.3604240119457245
 22
1.122197151184082
 32
1.2798672914505005
 13
0.3722347021102905
 23
1.1316567659378052
 33
1.308583378791809
  0
3DFACE
  8
0
 10
0.11899089813232422
 20
1.122197151184082
 30
1.2792644500732422
 11
0.1301880031824112
 21
1.1334134340286255
 31
1.2524219751358032
 12
0.3493611216545105
 22
1.1334134340286255
 32
1.2529693841934204
 13
0.3604240119457245
 23
1.122197151184082
 33
1.2798672914505005
  0
3DFACE
  8
0
 10
0.3722347021102905
 20
1.1316567659378052
 30
1.308583378791809
 11
0.3604240119457245
 21
1.122197151184082
 31
1.2798672914505005
 12
0.5315691232681274
 22
1.122197151184082
 32
1.109574556350708
 13
0.5602251291275024
 23
1.1316567659378052
 33
1.121528148651123
  0
3DFACE
  8
0
 10
0.3604240119457245
 20
1.122197151184082
 30
1.2798672914505005
 11
0.3493611216545105
 21
1.1334134340286255
 31
1.2529693841934204
 12
0.5047266483306885
 22
1.1334134340286255
 32
1.0983774662017822
 13
0.5315691232681274
 23
1.122197151184082
 33
1.109574556350708
  0
3DFACE
  8
0
 10
0.5602251291275024
 20
1.1316567659378052
 30
1.121528148651123
 11
0.5315691232681274
 21
1.122197151184082
 31
1.109574556350708
 12
0.5321719646453857
 22
1.1221972703933716
 32
0.8681414127349854
 13
0.5608880519866943
 23
1.1316568851470947
 33
0.8563307523727417
  0
3DFACE
  8
0
 10
0.5315691232681274
 20
1.122197151184082
 30
1.109574556350708
 11
0.5047266483306885
 21
1.1334134340286255
 31
1.0983774662017822
 12
0.5052739381790161
 22
1.1334134340286255
 32
0.8792043328285217
 13
0.5321719646453857
 23
1.1221972703933716
 33
0.8681414127349854
  0
3DFACE
  8
0
 10
0.3506820797920227
 20
1.1334134340286255
 30
0.7238388061523438
 11
0.3618791699409485
 21
1.1221972703933716
 31
0.6969963312149048
 12
0.5321719646453857
 22
1.1221972703933716
 32
0.8681414127349854
 13
0.5052739381790161
 23
1.1334134340286255
 33
0.8792043328285217
  0
3DFACE
  8
0
 10
0.3618791699409485
 20
1.1221972703933716
 30
0.6969963312149048
 11
0.3738328218460083
 21
1.1316568851470947
 31
0.668340265750885
 12
0.5608880519866943
 22
1.1316568851470947
 32
0.8563307523727417
 13
0.5321719646453857
 23
1.1221972703933716
 33
0.8681414127349854
  0
3DFACE
  8
0
 10
0.5052739381790161
 20
1.1905977725982666
 30
0.8792043328285217
 11
0.5321719646453857
 21
1.2018139362335205
 31
0.8681414127349854
 12
0.3618791699409485
 22
1.2018139362335205
 32
0.6969963312149048
 13
0.3506820797920227
 23
1.1905977725982666
 33
0.7238388061523438
  0
3DFACE
  8
0
 10
0.5321719646453857
 20
1.2018139362335205
 30
0.8681414127349854
 11
0.5608880519866943
 21
1.1923543214797974
 31
0.8563307523727417
 12
0.3738328218460083
 22
1.1923543214797974
 32
0.668340265750885
 13
0.3618791699409485
 23
1.2018139362335205
 33
0.6969963312149048
  0
3DFACE
  8
0
 10
0.5608880519866943
 20
1.1923543214797974
 30
0.8563307523727417
 11
0.5321719646453857
 21
1.2018139362335205
 31
0.8681414127349854
 12
0.5315691232681274
 22
1.2018139362335205
 32
1.109574556350708
 13
0.5602251291275024
 23
1.1923543214797974
 33
1.121528148651123
  0
3DFACE
  8
0
 10
0.5321719646453857
 20
1.2018139362335205
 30
0.8681414127349854
 11
0.5052739381790161
 21
1.1905977725982666
 31
0.8792043328285217
 12
0.5047266483306885
 22
1.190597653388977
 32
1.0983774662017822
 13
0.5315691232681274
 23
1.2018139362335205
 33
1.109574556350708
  0
3DFACE
  8
0
 10
0.5602251291275024
 20
1.1923543214797974
 30
1.121528148651123
 11
0.5315691232681274
 21
1.2018139362335205
 31
1.109574556350708
 12
0.3604240119457245
 22
1.2018139362335205
 32
1.2798672914505005
 13
0.3722347021102905
 23
1.1923543214797974
 33
1.308583378791809
  0
3DFACE
  8
0
 10
0.5315691232681274
 20
1.2018139362335205
 30
1.109574556350708
 11
0.5047266483306885
 21
1.190597653388977
 31
1.0983774662017822
 12
0.3493611216545105
 22
1.190597653388977
 32
1.2529693841934204
 13
0.3604240119457245
 23
1.2018139362335205
 33
1.2798672914505005
  0
3DFACE
  8
0
 10
0.3722347021102905
 20
1.1923543214797974
 30
1.308583378791809
 11
0.3604240119457245
 21
1.2018139362335205
 31
1.2798672914505005
 12
0.11899089813232422
 22
1.201813817024231
 32
1.2792644500732422
 13
0.1070372611284256
 23
1.1923543214797974
 33
1.3079205751419067
  0
3DFACE
  8
0
 10
0.3604240119457245
 20
1.2018139362335205
 30
1.2798672914505005
 11
0.3493611216545105
 21
1.190597653388977
 31
1.2529693841934204
 12
0.1301880031824112
 22
1.190597653388977
 32
1.2524219751358032
 13
0.11899089813232422
 23
1.201813817024231
 33
1.2792644500732422
  0
3DFACE
  8
0
 10
0.1070372611284256
 20
1.1923543214797974
 30
1.3079205751419067
 11
0.11899089813232422
 21
1.201813817024231
 31
1.2792644500732422
 12
-0.05130186676979065
 22
1.2018139362335205
 32
1.108119249343872
 13
-0.08001789450645447
 23
1.1923543214797974
 33
1.1199300289154053
  0
3DFACE
  8
0
 10
0.11899089813232422
 20
1.201813817024231
 30
1.2792644500732422
 11
0.1301880031824112
 21
1.190597653388977
 31
1.2524219751358032
 12
-0.024403899908065796
 22
1.190597653388977
 32
1.0970563888549805
 13
-0.05130186676979065
 23
1.2018139362335205
 33
1.108119249343872
  0
3DFACE
  8
0
 10
-0.08001789450645447
 20
1.1923543214797974
 30
1.1199300289154053
 11
-0.05130186676979065
 21
1.2018139362335205
 31
1.108119249343872
 12
-0.05069902539253235
 22
1.2018139362335205
 32
0.8666862845420837
 13
-0.07935509085655212
 23
1.1923543214797974
 33
0.8547326326370239
  0
3DFACE
  8
0
 10
-0.05130186676979065
 20
1.2018139362335205
 30
1.108119249343872
 11
-0.024403899908065796
 21
1.190597653388977
 31
1.0970563888549805
 12
-0.023856550455093384
 22
1.1905977725982666
 32
0.8778833746910095
 13
-0.05069902539253235
 23
1.2018139362335205
 33
0.8666862845420837
  0
3DFACE
  8
0
 10
-0.07935509085655212
 20
1.1923543214797974
 30
0.8547326326370239
 11
-0.05069902539253235
 21
1.2018139362335205
 31
0.8666862845420837
 12
0.12044604867696762
 22
1.2018139362335205
 32
0.6963934898376465
 13
0.10863539576530457
 23
1.1923543214797974
 33
0.6676774621009827
  0
3DFACE
  8
0
 10
-0.05069902539253235
 20
1.2018139362335205
 30
0.8666862845420837
 11
-0.023856550455093384
 21
1.1905977725982666
 31
0.8778833746910095
 12
0.1315089613199234
 22
1.1905977725982666
 32
0.7232915163040161
 13
0.12044604867696762
 23
1.2018139362335205
 33
0.6963934898376465
  0
3DFACE
  8
0
 10
0.10863539576530457
 20
1.1923543214797974
 30
0.6676774621009827
 11
0.12044604867696762
 21
1.2018139362335205
 31
0.6963934898376465
 12
0.3618791699409485
 22
1.2018139362335205
 32
0.6969963312149048
 13
0.3738328218460083
 23
1.1923543214797974
 33
0.668340265750885
  0
3DFACE
  8
0
 10
0.12044604867696762
 20
1.2018139362335205
 30
0.6963934898376465
 11
0.1315089613199234
 21
1.1905977725982666
 31
0.7232915163040161
 12
0.3506820797920227
 22
1.1905977725982666
 32
0.7238388061523438
 13
0.3618791699409485
 23
1.2018139362335205
 33
0.6969963312149048
  0
3DFACE
  8
0
 10
0.3767717182636261
 20
1.1620056629180908
 30
0.6612945199012756
 11
0.3738328218460083
 21
1.1316568851470947
 31
0.668340265750885
 12
0.10863539576530457
 22
1.1316568851470947
 32
0.6676774621009827
 13
0.10573168098926544
 23
1.1620056629180908
 33
0.660617470741272
  0
3DFACE
  8
0
 10
0.10573168098926544
 20
1.1620056629180908
 30
0.660617470741272
 11
0.10863539576530457
 21
1.1923543214797974
 31
0.6676774621009827
 12
0.3738328218460083
 22
1.1923543214797974
 32
0.668340265750885
 13
0.3767717182636261
 23
1.1620056629180908
 33
0.6612945199012756
  0
3DFACE
  8
0
 10
-0.07935509085655212
 20
1.1316568851470947
 30
0.8547326326370239
 11
-0.08640080690383911
 21
1.1620056629180908
 31
0.8517937064170837
 12
0.10573168098926544
 22
1.1620056629180908
 32
0.660617470741272
 13
0.10863539576530457
 23
1.1316568851470947
 33
0.6676774621009827
  0
3DFACE
  8
0
 10
-0.08640080690383911
 20
1.1620056629180908
 30
0.8517937064170837
 11
-0.07935509085655212
 21
1.1923543214797974
 31
0.8547326326370239
 12
0.10863539576530457
 22
1.1923543214797974
 32
0.6676774621009827
 13
0.10573168098926544
 23
1.1620056629180908
 33
0.660617470741272
  0
3DFACE
  8
0
 10
-0.08001789450645447
 20
1.1316568851470947
 30
1.1199300289154053
 11
-0.08707797527313232
 21
1.1620055437088013
 31
1.1228336095809937
 12
-0.08640080690383911
 22
1.1620056629180908
 32
0.8517937064170837
 13
-0.07935509085655212
 23
1.1316568851470947
 33
0.8547326326370239
  0
3DFACE
  8
0
 10
-0.08707797527313232
 20
1.1620055437088013
 30
1.1228336095809937
 11
-0.08001789450645447
 21
1.1923543214797974
 31
1.1199300289154053
 12
-0.07935509085655212
 22
1.1923543214797974
 32
0.8547326326370239
 13
-0.08640080690383911
 23
1.1620056629180908
 33
0.8517937064170837
  0
3DFACE
  8
0
 10
0.1070372611284256
 20
1.1316567659378052
 30
1.3079205751419067
 11
0.1040983498096466
 21
1.1620055437088013
 31
1.3149662017822266
 12
-0.08707797527313232
 22
1.1620055437088013
 32
1.1228336095809937
 13
-0.08001789450645447
 23
1.1316568851470947
 33
1.1199300289154053
  0
3DFACE
  8
0
 10
0.1040983498096466
 20
1.1620055437088013
 30
1.3149662017822266
 11
0.1070372611284256
 21
1.1923543214797974
 31
1.3079205751419067
 12
-0.08001789450645447
 22
1.1923543214797974
 32
1.1199300289154053
 13
-0.08707797527313232
 23
1.1620055437088013
 33
1.1228336095809937
  0
3DFACE
  8
0
 10
0.3722347021102905
 20
1.1316567659378052
 30
1.308583378791809
 11
0.3751383423805237
 21
1.1620055437088013
 31
1.3156434297561646
 12
0.1040983498096466
 22
1.1620055437088013
 32
1.3149662017822266
 13
0.1070372611284256
 23
1.1316567659378052
 33
1.3079205751419067
  0
3DFACE
  8
0
 10
0.3751383423805237
 20
1.1620055437088013
 30
1.3156434297561646
 11
0.3722347021102905
 21
1.1923543214797974
 31
1.308583378791809
 12
0.1070372611284256
 22
1.1923543214797974
 32
1.3079205751419067
 13
0.1040983498096466
 23
1.1620055437088013
 33
1.3149662017822266
  0
3DFACE
  8
0
 10
0.5602251291275024
 20
1.1316567659378052
 30
1.121528148651123
 11
0.5672709345817566
 21
1.1620055437088013
 31
1.1244670152664185
 12
0.3751383423805237
 22
1.1620055437088013
 32
1.3156434297561646
 13
0.3722347021102905
 23
1.1316567659378052
 33
1.308583378791809
  0
3DFACE
  8
0
 10
0.5672709345817566
 20
1.1620055437088013
 30
1.1244670152664185
 11
0.5602251291275024
 21
1.1923543214797974
 31
1.121528148651123
 12
0.3722347021102905
 22
1.1923543214797974
 32
1.308583378791809
 13
0.3751383423805237
 23
1.1620055437088013
 33
1.3156434297561646
  0
3DFACE
  8
0
 10
0.5608880519866943
 20
1.1316568851470947
 30
0.8563307523727417
 11
0.567948043346405
 21
1.1620055437088013
 31
0.8534271121025085
 12
0.5672709345817566
 22
1.1620055437088013
 32
1.1244670152664185
 13
0.5602251291275024
 23
1.1316567659378052
 33
1.121528148651123
  0
3DFACE
  8
0
 10
0.567948043346405
 20
1.1620055437088013
 30
0.8534271121025085
 11
0.5608880519866943
 21
1.1923543214797974
 31
0.8563307523727417
 12
0.5602251291275024
 22
1.1923543214797974
 32
1.121528148651123
 13
0.5672709345817566
 23
1.1620055437088013
 33
1.1244670152664185
  0
3DFACE
  8
0
 10
0.3738328218460083
 20
1.1316568851470947
 30
0.668340265750885
 11
0.3767717182636261
 21
1.1620056629180908
 31
0.6612945199012756
 12
0.567948043346405
 22
1.1620055437088013
 32
0.8534271121025085
 13
0.5608880519866943
 23
1.1316568851470947
 33
0.8563307523727417
  0
3DFACE
  8
0
 10
0.3767717182636261
 20
1.1620056629180908
 30
0.6612945199012756
 11
0.3738328218460083
 21
1.1923543214797974
 31
0.668340265750885
 12
0.5608880519866943
 22
1.1923543214797974
 32
0.8563307523727417
 13
0.567948043346405
 23
1.1620055437088013
 33
0.8534271121025085
  0
3DFACE
  8
0
 10
0.2625400424003601
 20
1.1962465047836304
 30
1.0418201684951782
 11
0.29412487149238586
 21
1.1962465047836304
 31
1.0105035305023193
 12
0.29412487149238586
 22
1.19624662399292
 32
0.9660253524780273
 13
0.2628081440925598
 23
1.19624662399292
 33
0.934440553188324
  0
3DFACE
  8
0
 10
0.2183300107717514
 20
1.19624662399292
 30
0.934440553188324
 11
0.21806193888187408
 21
1.1962465047836304
 31
1.0418201684951782
 12
0.2625400424003601
 22
1.1962465047836304
 32
1.0418201684951782
 13
0.2628081440925598
 23
1.19624662399292
 33
0.934440553188324
  0
3DFACE
  8
0
 10
0.2183300107717514
 20
1.19624662399292
 30
0.934440553188324
 11
0.18674521148204803
 21
1.19624662399292
 31
0.9657573103904724
 12
0.18674521148204803
 22
1.1962465047836304
 32
1.0102354288101196
 13
0.21806193888187408
 23
1.1962465047836304
 33
1.0418201684951782
  0
3DFACE
  8
0
 10
0.2628081440925598
 20
1.1189430952072144
 30
0.934440553188324
 11
0.25514909625053406
 21
1.1189430952072144
 31
0.9528568983078003
 12
0.22589729726314545
 22
1.1189430952072144
 32
0.9527838230133057
 13
0.2183300256729126
 23
1.1189430952072144
 33
0.934440553188324
  0
3DFACE
  8
0
 10
0.2183300256729126
 20
1.1189430952072144
 30
0.934440553188324
 11
0.22589729726314545
 21
1.1189430952072144
 31
0.9527838230133057
 12
0.20516151189804077
 22
1.1189430952072144
 32
0.9734163284301758
 13
0.18674521148204803
 23
1.1189430952072144
 33
0.9657573103904724
  0
3DFACE
  8
0
 10
0.18674521148204803
 20
1.1189430952072144
 30
0.9657573103904724
 11
0.20516151189804077
 21
1.1189430952072144
 31
0.9734163284301758
 12
0.20508849620819092
 22
1.1189430952072144
 32
1.0026681423187256
 13
0.18674521148204803
 23
1.1189430952072144
 33
1.0102354288101196
  0
3DFACE
  8
0
 10
0.18674521148204803
 20
1.1189430952072144
 30
1.0102354288101196
 11
0.20508849620819092
 21
1.1189430952072144
 31
1.0026681423187256
 12
0.22572098672389984
 22
1.1189430952072144
 32
1.0234038829803467
 13
0.21806193888187408
 23
1.1189430952072144
 33
1.0418201684951782
  0
3DFACE
  8
0
 10
0.21806193888187408
 20
1.1189430952072144
 30
1.0418201684951782
 11
0.22572098672389984
 21
1.1189430952072144
 31
1.0234038829803467
 12
0.25497278571128845
 22
1.1189430952072144
 32
1.0234769582748413
 13
0.2625400424003601
 23
1.1189430952072144
 33
1.0418201684951782
  0
3DFACE
  8
0
 10
0.2625400424003601
 20
1.1189430952072144
 30
1.0418201684951782
 11
0.25497278571128845
 21
1.1189430952072144
 31
1.0234769582748413
 12
0.27570855617523193
 22
1.1189430952072144
 32
1.0028444528579712
 13
0.29412487149238586
 23
1.1189430952072144
 33
1.0105035305023193
  0
3DFACE
  8
0
 10
0.29412487149238586
 20
1.1189430952072144
 30
1.0105035305023193
 11
0.27570855617523193
 21
1.1189430952072144
 31
1.0028444528579712
 12
0.2757816016674042
 22
1.1189430952072144
 32
0.9735926389694214
 13
0.29412487149238586
 23
1.1189430952072144
 33
0.9660253524780273
  0
3DFACE
  8
0
 10
0.29412487149238586
 20
1.1189430952072144
 30
0.9660253524780273
 11
0.2757816016674042
 21
1.1189430952072144
 31
0.9735926389694214
 12
0.25514909625053406
 22
1.1189430952072144
 32
0.9528568983078003
 13
0.2628081440925598
 23
1.1189430952072144
 33
0.934440553188324
  0
3DFACE
  8
0
 10
0.2757816016674042
 20
1.1189430952072144
 30
0.9735926389694214
 11
0.2757815718650818
 21
0.9223237633705139
 31
0.9735926389694214
 12
0.25514909625053406
 22
0.9223237633705139
 32
0.9528568983078003
 13
0.25514909625053406
 23
1.1189430952072144
 33
0.9528568983078003
  0
3DFACE
  8
0
 10
0.27570855617523193
 20
1.1189430952072144
 30
1.0028444528579712
 11
0.27570855617523193
 21
0.9223237633705139
 31
1.0028444528579712
 12
0.2757815718650818
 22
0.9223237633705139
 32
0.9735926389694214
 13
0.2757816016674042
 23
1.1189430952072144
 33
0.9735926389694214
  0
3DFACE
  8
0
 10
0.25497278571128845
 20
1.1189430952072144
 30
1.0234769582748413
 11
0.25497278571128845
 21
0.9223237633705139
 31
1.0234769582748413
 12
0.27570855617523193
 22
0.9223237633705139
 32
1.0028444528579712
 13
0.27570855617523193
 23
1.1189430952072144
 33
1.0028444528579712
  0
3DFACE
  8
0
 10
0.22572098672389984
 20
1.1189430952072144
 30
1.0234038829803467
 11
0.22572098672389984
 21
0.9223237633705139
 31
1.0234038829803467
 12
0.25497278571128845
 22
0.9223237633705139
 32
1.0234769582748413
 13
0.25497278571128845
 23
1.1189430952072144
 33
1.0234769582748413
  0
3DFACE
  8
0
 10
0.20508849620819092
 20
1.1189430952072144
 30
1.0026681423187256
 11
0.20508848130702972
 21
0.9223237633705139
 31
1.0026681423187256
 12
0.22572098672389984
 22
0.9223237633705139
 32
1.0234038829803467
 13
0.22572098672389984
 23
1.1189430952072144
 33
1.0234038829803467
  0
3DFACE
  8
0
 10
0.20516151189804077
 20
1.1189430952072144
 30
0.9734163284301758
 11
0.20516151189804077
 21
0.9223237633705139
 31
0.9734163284301758
 12
0.20508848130702972
 22
0.9223237633705139
 32
1.0026681423187256
 13
0.20508849620819092
 23
1.1189430952072144
 33
1.0026681423187256
  0
3DFACE
  8
0
 10
0.22589729726314545
 20
1.1189430952072144
 30
0.9527838230133057
 11
0.22589729726314545
 21
0.9223237633705139
 31
0.9527838230133057
 12
0.20516151189804077
 22
0.9223237633705139
 32
0.9734163284301758
 13
0.20516151189804077
 23
1.1189430952072144
 33
0.9734163284301758
  0
3DFACE
  8
0
 10
0.25514909625053406
 20
1.1189430952072144
 30
0.9528568983078003
 11
0.25514909625053406
 21
0.9223237633705139
 31
0.9528568983078003
 12
0.22589729726314545
 22
0.9223237633705139
 32
0.9527838230133057
 13
0.22589729726314545
 23
1.1189430952072144
 33
0.9527838230133057
  0
3DFACE
  8
0
 10
0.3036525845527649
 20
1.1358532905578613
 30
0.7198374271392822
 11
0.2749864459037781
 21
1.1457606554031372
 31
0.7855406999588013
 12
0.2068956196308136
 22
1.1457606554031372
 32
0.7853707075119019
 13
0.1785578727722168
 23
1.1358532905578613
 33
0.719525158405304
  0
3DFACE
  8
0
 10
-0.027857929468154907
 20
1.1358532905578613
 30
0.9249128699302673
 11
0.03784532845020294
 21
1.1457605361938477
 31
0.9535790085792542
 12
0.03767533600330353
 22
1.1457605361938477
 32
1.0216697454452515
 13
-0.02817019820213318
 23
1.1358531713485718
 33
1.0500074625015259
  0
3DFACE
  8
0
 10
0.1772174835205078
 20
1.1358531713485718
 30
1.2564233541488647
 11
0.20588365197181702
 21
1.1457605361938477
 31
1.1907200813293457
 12
0.2739744782447815
 22
1.1457605361938477
 32
1.1908900737762451
 13
0.3023121953010559
 23
1.1358531713485718
 33
1.2567356824874878
  0
3DFACE
  8
0
 10
0.50872802734375
 20
1.1358531713485718
 30
1.0513479709625244
 11
0.44302475452423096
 21
1.1457605361938477
 31
1.0226818323135376
 12
0.44319474697113037
 22
1.1457605361938477
 32
0.9545909762382507
 13
0.509040355682373
 23
1.1358532905578613
 33
0.9262532591819763
  0
3DFACE
  8
0
 10
0.509040355682373
 20
1.1358532905578613
 30
0.9262532591819763
 11
0.44319474697113037
 21
1.1457605361938477
 31
0.9545909762382507
 12
0.44319474697113037
 22
1.179336428642273
 32
0.9545909762382507
 13
0.509040355682373
 23
1.179336428642273
 33
0.9262532591819763
  0
3DFACE
  8
0
 10
0.3036525845527649
 20
1.179336428642273
 30
0.7198374271392822
 11
0.2749864459037781
 21
1.179336428642273
 31
0.7855406999588013
 12
0.2749864459037781
 22
1.1457606554031372
 32
0.7855406999588013
 13
0.3036525845527649
 23
1.1358532905578613
 33
0.7198374271392822
  0
3DFACE
  8
0
 10
0.50872802734375
 20
1.179336428642273
 30
1.0513479709625244
 11
0.44302475452423096
 21
1.179336428642273
 31
1.0226818323135376
 12
0.44302475452423096
 22
1.1457605361938477
 32
1.0226818323135376
 13
0.50872802734375
 23
1.1358531713485718
 33
1.0513479709625244
  0
3DFACE
  8
0
 10
0.509040355682373
 20
1.179336428642273
 30
0.9262532591819763
 11
0.44319474697113037
 21
1.179336428642273
 31
0.9545909762382507
 12
0.44302475452423096
 22
1.179336428642273
 32
1.0226818323135376
 13
0.50872802734375
 23
1.179336428642273
 33
1.0513479709625244
  0
3DFACE
  8
0
 10
0.3023121953010559
 20
1.1358531713485718
 30
1.2567356824874878
 11
0.2739744782447815
 21
1.1457605361938477
 31
1.1908900737762451
 12
0.2739744782447815
 22
1.179336428642273
 32
1.1908901929855347
 13
0.3023121953010559
 23
1.179336428642273
 33
1.2567356824874878
  0
3DFACE
  8
0
 10
0.1772174835205078
 20
1.179336428642273
 30
1.2564233541488647
 11
0.20588365197181702
 21
1.179336428642273
 31
1.1907200813293457
 12
0.20588365197181702
 22
1.1457605361938477
 32
1.1907200813293457
 13
0.1772174835205078
 23
1.1358531713485718
 33
1.2564233541488647
  0
3DFACE
  8
0
 10
0.3023121953010559
 20
1.179336428642273
 30
1.2567356824874878
 11
0.2739744782447815
 21
1.179336428642273
 31
1.1908901929855347
 12
0.20588365197181702
 22
1.179336428642273
 32
1.1907200813293457
 13
0.1772174835205078
 23
1.179336428642273
 33
1.2564233541488647
  0
3DFACE
  8
0
 10
-0.02817019820213318
 20
1.1358531713485718
 30
1.0500074625015259
 11
0.03767533600330353
 21
1.1457605361938477
 31
1.0216697454452515
 12
0.03767533600330353
 22
1.179336428642273
 32
1.0216697454452515
 13
-0.02817019820213318
 23
1.179336428642273
 33
1.0500074625015259
  0
3DFACE
  8
0
 10
-0.027857929468154907
 20
1.179336428642273
 30
0.9249128699302673
 11
0.03784535825252533
 21
1.179336428642273
 31
0.9535790085792542
 12
0.03784532845020294
 22
1.1457605361938477
 32
0.9535790085792542
 13
-0.027857929468154907
 23
1.1358532905578613
 33
0.9249128699302673
  0
3DFACE
  8
0
 10
-0.02817019820213318
 20
1.179336428642273
 30
1.0500074625015259
 11
0.03767533600330353
 21
1.179336428642273
 31
1.0216697454452515
 12
0.03784535825252533
 22
1.179336428642273
 32
0.9535790085792542
 13
-0.027857929468154907
 23
1.179336428642273
 33
0.9249128699302673
  0
3DFACE
  8
0
 10
0.1785578727722168
 20
1.1358532905578613
 30
0.719525158405304
 11
0.2068956196308136
 21
1.1457606554031372
 31
0.7853707075119019
 12
0.2068956196308136
 22
1.179336428642273
 32
0.7853707075119019
 13
0.1785578727722168
 23
1.179336428642273
 33
0.719525158405304
  0
3DFACE
  8
0
 10
0.1785578727722168
 20
1.179336428642273
 30
0.719525158405304
 11
0.2068956196308136
 21
1.179336428642273
 31
0.7853707075119019
 12
0.2749864459037781
 22
1.179336428642273
 32
0.7855406999588013
 13
0.3036525845527649
 23
1.179336428642273
 33
0.7198374271392822
  0
3DFACE
  8
0
 10
0.2068956196308136
 20
1.179336428642273
 30
0.7853707075119019
 11
0.2266492247581482
 21
1.179336428642273
 31
0.934440553188324
 12
0.25463682413101196
 22
1.179336428642273
 32
0.934440553188324
 13
0.2749864459037781
 23
1.179336428642273
 33
0.7855406999588013
  0
3DFACE
  8
0
 10
0.2068956196308136
 20
1.1457606554031372
 30
0.7853707075119019
 11
0.2266492247581482
 21
1.1527305841445923
 31
0.934440553188324
 12
0.2266492247581482
 22
1.179336428642273
 32
0.934440553188324
 13
0.2068956196308136
 23
1.179336428642273
 33
0.7853707075119019
  0
3DFACE
  8
0
 10
0.03767533600330353
 20
1.179336428642273
 30
1.0216697454452515
 11
0.18674521148204803
 21
1.179336428642273
 31
1.0019161701202393
 12
0.18674521148204803
 22
1.179336428642273
 32
0.9739286303520203
 13
0.03784535825252533
 23
1.179336428642273
 33
0.9535790085792542
  0
3DFACE
  8
0
 10
0.03784535825252533
 20
1.179336428642273
 30
0.9535790085792542
 11
0.18674521148204803
 21
1.179336428642273
 31
0.9739286303520203
 12
0.18674521148204803
 22
1.1527305841445923
 32
0.9739286303520203
 13
0.03784532845020294
 23
1.1457605361938477
 33
0.9535790085792542
  0
3DFACE
  8
0
 10
0.03767533600330353
 20
1.1457605361938477
 30
1.0216697454452515
 11
0.18674521148204803
 21
1.1527305841445923
 31
1.0019161701202393
 12
0.18674521148204803
 22
1.179336428642273
 32
1.0019161701202393
 13
0.03767533600330353
 23
1.179336428642273
 33
1.0216697454452515
  0
3DFACE
  8
0
 10
0.2739744782447815
 20
1.179336428642273
 30
1.1908901929855347
 11
0.2542208433151245
 21
1.179336428642273
 31
1.0418201684951782
 12
0.22623327374458313
 22
1.179336428642273
 32
1.0418202877044678
 13
0.20588365197181702
 23
1.179336428642273
 33
1.1907200813293457
  0
3DFACE
  8
0
 10
0.20588365197181702
 20
1.179336428642273
 30
1.1907200813293457
 11
0.22623327374458313
 21
1.179336428642273
 31
1.0418202877044678
 12
0.22623327374458313
 22
1.1527305841445923
 32
1.0418202877044678
 13
0.20588365197181702
 23
1.1457605361938477
 33
1.1907200813293457
  0
3DFACE
  8
0
 10
0.2739744782447815
 20
1.1457605361938477
 30
1.1908900737762451
 11
0.2542208731174469
 21
1.1527305841445923
 31
1.0418201684951782
 12
0.2542208433151245
 22
1.179336428642273
 32
1.0418201684951782
 13
0.2739744782447815
 23
1.179336428642273
 33
1.1908901929855347
  0
3DFACE
  8
0
 10
0.44319474697113037
 20
1.179336428642273
 30
0.9545909762382507
 11
0.29412487149238586
 21
1.179336428642273
 31
0.9743445515632629
 12
0.29412487149238586
 22
1.179336428642273
 32
1.0023322105407715
 13
0.44302475452423096
 23
1.179336428642273
 33
1.0226818323135376
  0
3DFACE
  8
0
 10
0.44302475452423096
 20
1.179336428642273
 30
1.0226818323135376
 11
0.29412487149238586
 21
1.179336428642273
 31
1.0023322105407715
 12
0.29412487149238586
 22
1.1527305841445923
 32
1.0023322105407715
 13
0.44302475452423096
 23
1.1457605361938477
 33
1.0226818323135376
  0
3DFACE
  8
0
 10
0.2749864459037781
 20
1.179336428642273
 30
0.7855406999588013
 11
0.25463682413101196
 21
1.179336428642273
 31
0.934440553188324
 12
0.25463682413101196
 22
1.1527305841445923
 32
0.934440553188324
 13
0.2749864459037781
 23
1.1457606554031372
 33
0.7855406999588013
  0
3DFACE
  8
0
 10
0.44319474697113037
 20
1.1457605361938477
 30
0.9545909762382507
 11
0.29412487149238586
 21
1.1527305841445923
 31
0.9743445515632629
 12
0.29412487149238586
 22
1.179336428642273
 32
0.9743445515632629
 13
0.44319474697113037
 23
1.179336428642273
 33
0.9545909762382507
  0
3DFACE
  8
0
 10
0.44302475452423096
 20
1.1457605361938477
 30
1.0226818323135376
 11
0.29412487149238586
 21
1.1527305841445923
 31
1.0023322105407715
 12
0.29412487149238586
 22
1.1527305841445923
 32
0.9743445515632629
 13
0.44319474697113037
 23
1.1457605361938477
 33
0.9545909762382507
  0
3DFACE
  8
0
 10
0.20588365197181702
 20
1.1457605361938477
 30
1.1907200813293457
 11
0.22623327374458313
 21
1.1527305841445923
 31
1.0418202877044678
 12
0.2542208731174469
 22
1.1527305841445923
 32
1.0418201684951782
 13
0.2739744782447815
 23
1.1457605361938477
 33
1.1908900737762451
  0
3DFACE
  8
0
 10
0.03784532845020294
 20
1.1457605361938477
 30
0.9535790085792542
 11
0.18674521148204803
 21
1.1527305841445923
 31
0.9739286303520203
 12
0.18674521148204803
 22
1.1527305841445923
 32
1.0019161701202393
 13
0.03767533600330353
 23
1.1457605361938477
 33
1.0216697454452515
  0
3DFACE
  8
0
 10
0.2749864459037781
 20
1.1457606554031372
 30
0.7855406999588013
 11
0.25463682413101196
 21
1.1527305841445923
 31
0.934440553188324
 12
0.2266492247581482
 22
1.1527305841445923
 32
0.934440553188324
 13
0.2068956196308136
 23
1.1457606554031372
 33
0.7853707075119019
  0
3DFACE
  8
0
 10
0.2628081440925598
 20
1.1189430952072144
 30
0.934440553188324
 11
0.2628081440925598
 21
1.19624662399292
 31
0.934440553188324
 12
0.29412487149238586
 22
1.19624662399292
 32
0.9660253524780273
 13
0.29412487149238586
 23
1.1189430952072144
 33
0.9660253524780273
  0
3DFACE
  8
0
 10
0.29412487149238586
 20
1.1189430952072144
 30
0.9660253524780273
 11
0.29412487149238586
 21
1.19624662399292
 31
0.9660253524780273
 12
0.29412487149238586
 22
1.1962465047836304
 32
1.0105035305023193
 13
0.29412487149238586
 23
1.1189430952072144
 33
1.0105035305023193
  0
3DFACE
  8
0
 10
0.29412487149238586
 20
1.1189430952072144
 30
1.0105035305023193
 11
0.29412487149238586
 21
1.1962465047836304
 31
1.0105035305023193
 12
0.2625400424003601
 22
1.1962465047836304
 32
1.0418201684951782
 13
0.2625400424003601
 23
1.1189430952072144
 33
1.0418201684951782
  0
3DFACE
  8
0
 10
0.2625400424003601
 20
1.1189430952072144
 30
1.0418201684951782
 11
0.2625400424003601
 21
1.1962465047836304
 31
1.0418201684951782
 12
0.21806193888187408
 22
1.1962465047836304
 32
1.0418201684951782
 13
0.21806193888187408
 23
1.1189430952072144
 33
1.0418201684951782
  0
3DFACE
  8
0
 10
0.21806193888187408
 20
1.1189430952072144
 30
1.0418201684951782
 11
0.21806193888187408
 21
1.1962465047836304
 31
1.0418201684951782
 12
0.18674521148204803
 22
1.1962465047836304
 32
1.0102354288101196
 13
0.18674521148204803
 23
1.1189430952072144
 33
1.0102354288101196
  0
3DFACE
  8
0
 10
0.18674521148204803
 20
1.1189430952072144
 30
1.0102354288101196
 11
0.18674521148204803
 21
1.1962465047836304
 31
1.0102354288101196
 12
0.18674521148204803
 22
1.19624662399292
 32
0.9657573103904724
 13
0.18674521148204803
 23
1.1189430952072144
 33
0.9657573103904724
  0
3DFACE
  8
0
 10
0.18674521148204803
 20
1.1189430952072144
 30
0.9657573103904724
 11
0.18674521148204803
 21
1.19624662399292
 31
0.9657573103904724
 12
0.2183300107717514
 22
1.19624662399292
 32
0.934440553188324
 13
0.2183300256729126
 23
1.1189430952072144
 33
0.934440553188324
  0
3DFACE
  8
0
 10
0.2183300256729126
 20
1.1189430952072144
 30
0.934440553188324
 11
0.2183300107717514
 21
1.19624662399292
 31
0.934440553188324
 12
0.2628081440925598
 22
1.19624662399292
 32
0.934440553188324
 13
0.2628081440925598
 23
1.1189430952072144
 33
0.934440553188324
  0
3DFACE
  8
0
 10
0.3506820797920227
 20
0.7112340927124023
 30
0.723838746547699
 11
0.3506820797920227
 21
0.654049813747406
 31
0.723838746547699
 12
0.5052739381790161
 22
0.654049813747406
 32
0.8792043328285217
 13
0.5052739381790161
 23
0.7112340927124023
 33
0.8792043328285217
  0
3DFACE
  8
0
 10
0.5052739381790161
 20
0.7112340927124023
 30
0.8792043328285217
 11
0.5052739381790161
 21
0.654049813747406
 31
0.8792043328285217
 12
0.5047266483306885
 22
0.654049813747406
 32
1.0983774662017822
 13
0.5047266483306885
 23
0.7112340927124023
 33
1.0983774662017822
  0
3DFACE
  8
0
 10
0.5047266483306885
 20
0.7112340927124023
 30
1.0983774662017822
 11
0.5047266483306885
 21
0.654049813747406
 31
1.0983774662017822
 12
0.3493611216545105
 22
0.654049813747406
 32
1.2529692649841309
 13
0.3493611216545105
 23
0.7112340927124023
 33
1.2529692649841309
  0
3DFACE
  8
0
 10
0.3493611216545105
 20
0.7112340927124023
 30
1.2529692649841309
 11
0.3493611216545105
 21
0.654049813747406
 31
1.2529692649841309
 12
0.1301880031824112
 22
0.654049813747406
 32
1.2524219751358032
 13
0.1301880031824112
 23
0.7112340927124023
 33
1.2524219751358032
  0
3DFACE
  8
0
 10
0.1301880031824112
 20
0.7112340927124023
 30
1.2524219751358032
 11
0.1301880031824112
 21
0.654049813747406
 31
1.2524219751358032
 12
-0.024403899908065796
 22
0.654049813747406
 32
1.0970563888549805
 13
-0.024403899908065796
 23
0.7112340927124023
 33
1.0970563888549805
  0
3DFACE
  8
0
 10
-0.024403899908065796
 20
0.7112340927124023
 30
1.0970563888549805
 11
-0.024403899908065796
 21
0.654049813747406
 31
1.0970563888549805
 12
-0.023856550455093384
 22
0.654049813747406
 32
0.8778833746910095
 13
-0.023856550455093384
 23
0.7112340927124023
 33
0.8778833746910095
  0
3DFACE
  8
0
 10
-0.023856550455093384
 20
0.7112340927124023
 30
0.8778833746910095
 11
-0.023856550455093384
 21
0.654049813747406
 31
0.8778833746910095
 12
0.1315089613199234
 22
0.654049813747406
 32
0.7232914566993713
 13
0.1315089613199234
 23
0.7112340927124023
 33
0.7232914566993713
  0
3DFACE
  8
0
 10
0.1315089613199234
 20
0.7112340927124023
 30
0.7232914566993713
 11
0.1315089613199234
 21
0.654049813747406
 31
0.7232914566993713
 12
0.3506820797920227
 22
0.654049813747406
 32
0.723838746547699
 13
0.3506820797920227
 23
0.7112340927124023
 33
0.723838746547699
  0
3DFACE
  8
0
 10
0.3738328218460083
 20
0.7129907011985779
 30
0.668340265750885
 11
0.10863539576530457
 21
0.7129906415939331
 31
0.6676774024963379
 12
0.12044604867696762
 22
0.7224502563476562
 32
0.6963934898376465
 13
0.3618791699409485
 23
0.7224502563476562
 33
0.69699627161026
  0
3DFACE
  8
0
 10
0.3618791699409485
 20
0.7224502563476562
 30
0.69699627161026
 11
0.12044604867696762
 21
0.7224502563476562
 31
0.6963934898376465
 12
0.1315089613199234
 22
0.7112340927124023
 32
0.7232914566993713
 13
0.3506820797920227
 23
0.7112340927124023
 33
0.723838746547699
  0
3DFACE
  8
0
 10
0.10863539576530457
 20
0.7129906415939331
 30
0.6676774024963379
 11
-0.07935509085655212
 21
0.7129907011985779
 31
0.8547326326370239
 12
-0.05069902539253235
 22
0.7224502563476562
 32
0.8666862845420837
 13
0.12044604867696762
 23
0.7224502563476562
 33
0.6963934898376465
  0
3DFACE
  8
0
 10
0.12044604867696762
 20
0.7224502563476562
 30
0.6963934898376465
 11
-0.05069902539253235
 21
0.7224502563476562
 31
0.8666862845420837
 12
-0.023856550455093384
 22
0.7112340927124023
 32
0.8778833746910095
 13
0.1315089613199234
 23
0.7112340927124023
 33
0.7232914566993713
  0
3DFACE
  8
0
 10
-0.07935509085655212
 20
0.7129907011985779
 30
0.8547326326370239
 11
-0.08001789450645447
 21
0.7129907011985779
 31
1.1199300289154053
 12
-0.05130186676979065
 22
0.722450315952301
 32
1.108119249343872
 13
-0.05069902539253235
 23
0.7224502563476562
 33
0.8666862845420837
  0
3DFACE
  8
0
 10
-0.05069902539253235
 20
0.7224502563476562
 30
0.8666862845420837
 11
-0.05130186676979065
 21
0.722450315952301
 31
1.108119249343872
 12
-0.024403899908065796
 22
0.7112340927124023
 32
1.0970563888549805
 13
-0.023856550455093384
 23
0.7112340927124023
 33
0.8778833746910095
  0
3DFACE
  8
0
 10
-0.08001789450645447
 20
0.7129907011985779
 30
1.1199300289154053
 11
0.1070372611284256
 21
0.7129907011985779
 31
1.3079204559326172
 12
0.11899089813232422
 22
0.722450315952301
 32
1.2792644500732422
 13
-0.05130186676979065
 23
0.722450315952301
 33
1.108119249343872
  0
3DFACE
  8
0
 10
-0.05130186676979065
 20
0.722450315952301
 30
1.108119249343872
 11
0.11899089813232422
 21
0.722450315952301
 31
1.2792644500732422
 12
0.1301880031824112
 22
0.7112340927124023
 32
1.2524219751358032
 13
-0.024403899908065796
 23
0.7112340927124023
 33
1.0970563888549805
  0
3DFACE
  8
0
 10
0.1070372611284256
 20
0.7129907011985779
 30
1.3079204559326172
 11
0.3722347021102905
 21
0.7129907011985779
 31
1.308583378791809
 12
0.3604240119457245
 22
0.722450315952301
 32
1.2798672914505005
 13
0.11899089813232422
 23
0.722450315952301
 33
1.2792644500732422
  0
3DFACE
  8
0
 10
0.11899089813232422
 20
0.722450315952301
 30
1.2792644500732422
 11
0.3604240119457245
 21
0.722450315952301
 31
1.2798672914505005
 12
0.3493611216545105
 22
0.7112340927124023
 32
1.2529692649841309
 13
0.1301880031824112
 23
0.7112340927124023
 33
1.2524219751358032
  0
3DFACE
  8
0
 10
0.3722347021102905
 20
0.7129907011985779
 30
1.308583378791809
 11
0.5602251291275024
 21
0.7129907011985779
 31
1.121528148651123
 12
0.5315691232681274
 22
0.722450315952301
 32
1.109574556350708
 13
0.3604240119457245
 23
0.722450315952301
 33
1.2798672914505005
  0
3DFACE
  8
0
 10
0.3604240119457245
 20
0.722450315952301
 30
1.2798672914505005
 11
0.5315691232681274
 21
0.722450315952301
 31
1.109574556350708
 12
0.5047266483306885
 22
0.7112340927124023
 32
1.0983774662017822
 13
0.3493611216545105
 23
0.7112340927124023
 33
1.2529692649841309
  0
3DFACE
  8
0
 10
0.5602251291275024
 20
0.7129907011985779
 30
1.121528148651123
 11
0.5608880519866943
 21
0.7129907011985779
 31
0.8563307523727417
 12
0.5321719646453857
 22
0.722450315952301
 32
0.8681414127349854
 13
0.5315691232681274
 23
0.722450315952301
 33
1.109574556350708
  0
3DFACE
  8
0
 10
0.5315691232681274
 20
0.722450315952301
 30
1.109574556350708
 11
0.5321719646453857
 21
0.722450315952301
 31
0.8681414127349854
 12
0.5052739381790161
 22
0.7112340927124023
 32
0.8792043328285217
 13
0.5047266483306885
 23
0.7112340927124023
 33
1.0983774662017822
  0
3DFACE
  8
0
 10
0.3506820797920227
 20
0.7112340927124023
 30
0.723838746547699
 11
0.5052739381790161
 21
0.7112340927124023
 31
0.8792043328285217
 12
0.5321719646453857
 22
0.722450315952301
 32
0.8681414127349854
 13
0.3618791699409485
 23
0.7224502563476562
 33
0.69699627161026
  0
3DFACE
  8
0
 10
0.3618791699409485
 20
0.7224502563476562
 30
0.69699627161026
 11
0.5321719646453857
 21
0.722450315952301
 31
0.8681414127349854
 12
0.5608880519866943
 22
0.7129907011985779
 32
0.8563307523727417
 13
0.3738328218460083
 23
0.7129907011985779
 33
0.668340265750885
  0
3DFACE
  8
0
 10
0.5052739381790161
 20
0.654049813747406
 30
0.8792043328285217
 11
0.3506820797920227
 21
0.654049813747406
 31
0.723838746547699
 12
0.3618791699409485
 22
0.6428335905075073
 32
0.69699627161026
 13
0.5321719646453857
 23
0.6428335905075073
 33
0.8681414127349854
  0
3DFACE
  8
0
 10
0.5321719646453857
 20
0.6428335905075073
 30
0.8681414127349854
 11
0.3618791699409485
 21
0.6428335905075073
 31
0.69699627161026
 12
0.3738328218460083
 22
0.6522932052612305
 32
0.668340265750885
 13
0.5608880519866943
 23
0.6522932052612305
 33
0.8563307523727417
  0
3DFACE
  8
0
 10
0.5608880519866943
 20
0.6522932052612305
 30
0.8563307523727417
 11
0.5602251291275024
 21
0.6522932052612305
 31
1.121528148651123
 12
0.5315691232681274
 22
0.6428335905075073
 32
1.109574556350708
 13
0.5321719646453857
 23
0.6428335905075073
 33
0.8681414127349854
  0
3DFACE
  8
0
 10
0.5321719646453857
 20
0.6428335905075073
 30
0.8681414127349854
 11
0.5315691232681274
 21
0.6428335905075073
 31
1.109574556350708
 12
0.5047266483306885
 22
0.654049813747406
 32
1.0983774662017822
 13
0.5052739381790161
 23
0.654049813747406
 33
0.8792043328285217
  0
3DFACE
  8
0
 10
0.5602251291275024
 20
0.6522932052612305
 30
1.121528148651123
 11
0.3722347021102905
 21
0.6522932052612305
 31
1.308583378791809
 12
0.3604240119457245
 22
0.6428335905075073
 32
1.2798672914505005
 13
0.5315691232681274
 23
0.6428335905075073
 33
1.109574556350708
  0
3DFACE
  8
0
 10
0.5315691232681274
 20
0.6428335905075073
 30
1.109574556350708
 11
0.3604240119457245
 21
0.6428335905075073
 31
1.2798672914505005
 12
0.3493611216545105
 22
0.654049813747406
 32
1.2529692649841309
 13
0.5047266483306885
 23
0.654049813747406
 33
1.0983774662017822
  0
3DFACE
  8
0
 10
0.3722347021102905
 20
0.6522932052612305
 30
1.308583378791809
 11
0.1070372611284256
 21
0.6522932052612305
 31
1.3079204559326172
 12
0.11899089813232422
 22
0.6428336501121521
 32
1.2792644500732422
 13
0.3604240119457245
 23
0.6428335905075073
 33
1.2798672914505005
  0
3DFACE
  8
0
 10
0.3604240119457245
 20
0.6428335905075073
 30
1.2798672914505005
 11
0.11899089813232422
 21
0.6428336501121521
 31
1.2792644500732422
 12
0.1301880031824112
 22
0.654049813747406
 32
1.2524219751358032
 13
0.3493611216545105
 23
0.654049813747406
 33
1.2529692649841309
  0
3DFACE
  8
0
 10
0.1070372611284256
 20
0.6522932052612305
 30
1.3079204559326172
 11
-0.08001789450645447
 21
0.6522932052612305
 31
1.1199300289154053
 12
-0.05130186676979065
 22
0.6428335905075073
 32
1.108119249343872
 13
0.11899089813232422
 23
0.6428336501121521
 33
1.2792644500732422
  0
3DFACE
  8
0
 10
0.11899089813232422
 20
0.6428336501121521
 30
1.2792644500732422
 11
-0.05130186676979065
 21
0.6428335905075073
 31
1.108119249343872
 12
-0.024403899908065796
 22
0.654049813747406
 32
1.0970563888549805
 13
0.1301880031824112
 23
0.654049813747406
 33
1.2524219751358032
  0
3DFACE
  8
0
 10
-0.08001789450645447
 20
0.6522932052612305
 30
1.1199300289154053
 11
-0.07935509085655212
 21
0.6522932052612305
 31
0.8547326326370239
 12
-0.05069902539253235
 22
0.6428335905075073
 32
0.8666862845420837
 13
-0.05130186676979065
 23
0.6428335905075073
 33
1.108119249343872
  0
3DFACE
  8
0
 10
-0.05130186676979065
 20
0.6428335905075073
 30
1.108119249343872
 11
-0.05069902539253235
 21
0.6428335905075073
 31
0.8666862845420837
 12
-0.023856550455093384
 22
0.654049813747406
 32
0.8778833746910095
 13
-0.024403899908065796
 23
0.654049813747406
 33
1.0970563888549805
  0
3DFACE
  8
0
 10
-0.07935509085655212
 20
0.6522932052612305
 30
0.8547326326370239
 11
0.10863539576530457
 21
0.6522932052612305
 31
0.6676774024963379
 12
0.12044604867696762
 22
0.6428335905075073
 32
0.6963934898376465
 13
-0.05069902539253235
 23
0.6428335905075073
 33
0.8666862845420837
  0
3DFACE
  8
0
 10
-0.05069902539253235
 20
0.6428335905075073
 30
0.8666862845420837
 11
0.12044604867696762
 21
0.6428335905075073
 31
0.6963934898376465
 12
0.1315089613199234
 22
0.654049813747406
 32
0.7232914566993713
 13
-0.023856550455093384
 23
0.654049813747406
 33
0.8778833746910095
  0
3DFACE
  8
0
 10
0.10863539576530457
 20
0.6522932052612305
 30
0.6676774024963379
 11
0.3738328218460083
 21
0.6522932052612305
 31
0.668340265750885
 12
0.3618791699409485
 22
0.6428335905075073
 32
0.69699627161026
 13
0.12044604867696762
 23
0.6428335905075073
 33
0.6963934898376465
  0
3DFACE
  8
0
 10
0.12044604867696762
 20
0.6428335905075073
 30
0.6963934898376465
 11
0.3618791699409485
 21
0.6428335905075073
 31
0.69699627161026
 12
0.3506820797920227
 22
0.654049813747406
 32
0.723838746547699
 13
0.1315089613199234
 23
0.654049813747406
 33
0.7232914566993713
  0
3DFACE
  8
0
 10
0.3767717182636261
 20
0.6826419234275818
 30
0.6612945199012756
 11
0.10573168098926544
 21
0.6826419234275818
 31
0.6606174111366272
 12
0.10863539576530457
 22
0.7129906415939331
 32
0.6676774024963379
 13
0.3738328218460083
 23
0.7129907011985779
 33
0.668340265750885
  0
3DFACE
  8
0
 10
0.10573168098926544
 20
0.6826419234275818
 30
0.6606174111366272
 11
0.3767717182636261
 21
0.6826419234275818
 31
0.6612945199012756
 12
0.3738328218460083
 22
0.6522932052612305
 32
0.668340265750885
 13
0.10863539576530457
 23
0.6522932052612305
 33
0.6676774024963379
  0
3DFACE
  8
0
 10
-0.07935509085655212
 20
0.7129907011985779
 30
0.8547326326370239
 11
0.10863539576530457
 21
0.7129906415939331
 31
0.6676774024963379
 12
0.10573168098926544
 22
0.6826419234275818
 32
0.6606174111366272
 13
-0.08640080690383911
 23
0.6826419234275818
 33
0.8517937064170837
  0
3DFACE
  8
0
 10
-0.08640080690383911
 20
0.6826419234275818
 30
0.8517937064170837
 11
0.10573168098926544
 21
0.6826419234275818
 31
0.6606174111366272
 12
0.10863539576530457
 22
0.6522932052612305
 32
0.6676774024963379
 13
-0.07935509085655212
 23
0.6522932052612305
 33
0.8547326326370239
  0
3DFACE
  8
0
 10
-0.08001789450645447
 20
0.7129907011985779
 30
1.1199300289154053
 11
-0.07935509085655212
 21
0.7129907011985779
 31
0.8547326326370239
 12
-0.08640080690383911
 22
0.6826419234275818
 32
0.8517937064170837
 13
-0.08707797527313232
 23
0.6826419234275818
 33
1.1228336095809937
  0
3DFACE
  8
0
 10
-0.08707797527313232
 20
0.6826419234275818
 30
1.1228336095809937
 11
-0.08640080690383911
 21
0.6826419234275818
 31
0.8517937064170837
 12
-0.07935509085655212
 22
0.6522932052612305
 32
0.8547326326370239
 13
-0.08001789450645447
 23
0.6522932052612305
 33
1.1199300289154053
  0
3DFACE
  8
0
 10
0.1070372611284256
 20
0.7129907011985779
 30
1.3079204559326172
 11
-0.08001789450645447
 21
0.7129907011985779
 31
1.1199300289154053
 12
-0.08707797527313232
 22
0.6826419234275818
 32
1.1228336095809937
 13
0.1040983498096466
 23
0.6826419830322266
 33
1.3149662017822266
  0
3DFACE
  8
0
 10
0.1040983498096466
 20
0.6826419830322266
 30
1.3149662017822266
 11
-0.08707797527313232
 21
0.6826419234275818
 31
1.1228336095809937
 12
-0.08001789450645447
 22
0.6522932052612305
 32
1.1199300289154053
 13
0.1070372611284256
 23
0.6522932052612305
 33
1.3079204559326172
  0
3DFACE
  8
0
 10
0.3722347021102905
 20
0.7129907011985779
 30
1.308583378791809
 11
0.1070372611284256
 21
0.7129907011985779
 31
1.3079204559326172
 12
0.1040983498096466
 22
0.6826419830322266
 32
1.3149662017822266
 13
0.3751383423805237
 23
0.6826419830322266
 33
1.3156434297561646
  0
3DFACE
  8
0
 10
0.3751383423805237
 20
0.6826419830322266
 30
1.3156434297561646
 11
0.1040983498096466
 21
0.6826419830322266
 31
1.3149662017822266
 12
0.1070372611284256
 22
0.6522932052612305
 32
1.3079204559326172
 13
0.3722347021102905
 23
0.6522932052612305
 33
1.308583378791809
  0
3DFACE
  8
0
 10
0.5602251291275024
 20
0.7129907011985779
 30
1.121528148651123
 11
0.3722347021102905
 21
0.7129907011985779
 31
1.308583378791809
 12
0.3751383423805237
 22
0.6826419830322266
 32
1.3156434297561646
 13
0.5672709345817566
 23
0.6826419830322266
 33
1.1244670152664185
  0
3DFACE
  8
0
 10
0.5672709345817566
 20
0.6826419830322266
 30
1.1244670152664185
 11
0.3751383423805237
 21
0.6826419830322266
 31
1.3156434297561646
 12
0.3722347021102905
 22
0.6522932052612305
 32
1.308583378791809
 13
0.5602251291275024
 23
0.6522932052612305
 33
1.121528148651123
  0
3DFACE
  8
0
 10
0.5608880519866943
 20
0.7129907011985779
 30
0.8563307523727417
 11
0.5602251291275024
 21
0.7129907011985779
 31
1.121528148651123
 12
0.5672709345817566
 22
0.6826419830322266
 32
1.1244670152664185
 13
0.567948043346405
 23
0.6826419830322266
 33
0.8534270524978638
  0
3DFACE
  8
0
 10
0.567948043346405
 20
0.6826419830322266
 30
0.8534270524978638
 11
0.5672709345817566
 21
0.6826419830322266
 31
1.1244670152664185
 12
0.5602251291275024
 22
0.6522932052612305
 32
1.121528148651123
 13
0.5608880519866943
 23
0.6522932052612305
 33
0.8563307523727417
  0
3DFACE
  8
0
 10
0.3738328218460083
 20
0.7129907011985779
 30
0.668340265750885
 11
0.5608880519866943
 21
0.7129907011985779
 31
0.8563307523727417
 12
0.567948043346405
 22
0.6826419830322266
 32
0.8534270524978638
 13
0.3767717182636261
 23
0.6826419234275818
 33
0.6612945199012756
  0
3DFACE
  8
0
 10
0.3767717182636261
 20
0.6826419234275818
 30
0.6612945199012756
 11
0.567948043346405
 21
0.6826419830322266
 31
0.8534270524978638
 12
0.5608880519866943
 22
0.6522932052612305
 32
0.8563307523727417
 13
0.3738328218460083
 23
0.6522932052612305
 33
0.668340265750885
  0
3DFACE
  8
0
 10
0.2625400424003601
 20
0.6484009623527527
 30
1.0418201684951782
 11
0.2628081440925598
 21
0.6484009623527527
 31
0.934440553188324
 12
0.29412487149238586
 22
0.6484009623527527
 32
0.9660253524780273
 13
0.29412487149238586
 23
0.6484009623527527
 33
1.0105035305023193
  0
3DFACE
  8
0
 10
0.2183300107717514
 20
0.6484009623527527
 30
0.934440553188324
 11
0.2628081440925598
 21
0.6484009623527527
 31
0.934440553188324
 12
0.2625400424003601
 22
0.6484009623527527
 32
1.0418201684951782
 13
0.21806193888187408
 23
0.6484009623527527
 33
1.0418201684951782
  0
3DFACE
  8
0
 10
0.2183300107717514
 20
0.6484009623527527
 30
0.934440553188324
 11
0.21806193888187408
 21
0.6484009623527527
 31
1.0418201684951782
 12
0.18674521148204803
 22
0.6484009623527527
 32
1.0102354288101196
 13
0.18674521148204803
 23
0.6484009623527527
 33
0.9657573103904724
  0
3DFACE
  8
0
 10
0.2628081440925598
 20
0.7257044315338135
 30
0.934440553188324
 11
0.2183300256729126
 21
0.7257044315338135
 31
0.934440553188324
 12
0.22589729726314545
 22
0.7257044315338135
 32
0.9527838230133057
 13
0.25514909625053406
 23
0.7257044315338135
 33
0.9528568983078003
  0
3DFACE
  8
0
 10
0.2183300256729126
 20
0.7257044315338135
 30
0.934440553188324
 11
0.18674521148204803
 21
0.7257044315338135
 31
0.9657573103904724
 12
0.20516151189804077
 22
0.7257044315338135
 32
0.9734163284301758
 13
0.22589729726314545
 23
0.7257044315338135
 33
0.9527838230133057
  0
3DFACE
  8
0
 10
0.18674521148204803
 20
0.7257044315338135
 30
0.9657573103904724
 11
0.18674521148204803
 21
0.7257044315338135
 31
1.0102354288101196
 12
0.20508849620819092
 22
0.7257044315338135
 32
1.0026681423187256
 13
0.20516151189804077
 23
0.7257044315338135
 33
0.9734163284301758
  0
3DFACE
  8
0
 10
0.18674521148204803
 20
0.7257044315338135
 30
1.0102354288101196
 11
0.21806193888187408
 21
0.7257044315338135
 31
1.0418201684951782
 12
0.22572098672389984
 22
0.7257044315338135
 32
1.0234038829803467
 13
0.20508849620819092
 23
0.7257044315338135
 33
1.0026681423187256
  0
3DFACE
  8
0
 10
0.21806193888187408
 20
0.7257044315338135
 30
1.0418201684951782
 11
0.2625400424003601
 21
0.7257044315338135
 31
1.0418201684951782
 12
0.25497278571128845
 22
0.7257044315338135
 32
1.0234769582748413
 13
0.22572098672389984
 23
0.7257044315338135
 33
1.0234038829803467
  0
3DFACE
  8
0
 10
0.2625400424003601
 20
0.7257044315338135
 30
1.0418201684951782
 11
0.29412487149238586
 21
0.7257044315338135
 31
1.0105035305023193
 12
0.27570855617523193
 22
0.7257044315338135
 32
1.0028444528579712
 13
0.25497278571128845
 23
0.7257044315338135
 33
1.0234769582748413
  0
3DFACE
  8
0
 10
0.29412487149238586
 20
0.7257044315338135
 30
1.0105035305023193
 11
0.29412487149238586
 21
0.7257044315338135
 31
0.9660253524780273
 12
0.2757816016674042
 22
0.7257044315338135
 32
0.9735926389694214
 13
0.27570855617523193
 23
0.7257044315338135
 33
1.0028444528579712
  0
3DFACE
  8
0
 10
0.29412487149238586
 20
0.7257044315338135
 30
0.9660253524780273
 11
0.2628081440925598
 21
0.7257044315338135
 31
0.934440553188324
 12
0.25514909625053406
 22
0.7257044315338135
 32
0.9528568983078003
 13
0.2757816016674042
 23
0.7257044315338135
 33
0.9735926389694214
  0
3DFACE
  8
0
 10
0.2757816016674042
 20
0.7257044315338135
 30
0.9735926389694214
 11
0.25514909625053406
 21
0.7257044315338135
 31
0.9528568983078003
 12
0.25514909625053406
 22
0.9223237633705139
 32
0.9528568983078003
 13
0.2757815718650818
 23
0.9223237633705139
 33
0.9735926389694214
  0
3DFACE
  8
0
 10
0.27570855617523193
 20
0.7257044315338135
 30
1.0028444528579712
 11
0.2757816016674042
 21
0.7257044315338135
 31
0.9735926389694214
 12
0.2757815718650818
 22
0.9223237633705139
 32
0.9735926389694214
 13
0.27570855617523193
 23
0.9223237633705139
 33
1.0028444528579712
  0
3DFACE
  8
0
 10
0.25497278571128845
 20
0.7257044315338135
 30
1.0234769582748413
 11
0.27570855617523193
 21
0.7257044315338135
 31
1.0028444528579712
 12
0.27570855617523193
 22
0.9223237633705139
 32
1.0028444528579712
 13
0.25497278571128845
 23
0.9223237633705139
 33
1.0234769582748413
  0
3DFACE
  8
0
 10
0.22572098672389984
 20
0.7257044315338135
 30
1.0234038829803467
 11
0.25497278571128845
 21
0.7257044315338135
 31
1.0234769582748413
 12
0.25497278571128845
 22
0.9223237633705139
 32
1.0234769582748413
 13
0.22572098672389984
 23
0.9223237633705139
 33
1.0234038829803467
  0
3DFACE
  8
0
 10
0.20508849620819092
 20
0.7257044315338135
 30
1.0026681423187256
 11
0.22572098672389984
 21
0.7257044315338135
 31
1.0234038829803467
 12
0.22572098672389984
 22
0.9223237633705139
 32
1.0234038829803467
 13
0.20508848130702972
 23
0.9223237633705139
 33
1.0026681423187256
  0
3DFACE
  8
0
 10
0.20516151189804077
 20
0.7257044315338135
 30
0.9734163284301758
 11
0.20508849620819092
 21
0.7257044315338135
 31
1.0026681423187256
 12
0.20508848130702972
 22
0.9223237633705139
 32
1.0026681423187256
 13
0.20516151189804077
 23
0.9223237633705139
 33
0.9734163284301758
  0
3DFACE
  8
0
 10
0.22589729726314545
 20
0.7257044315338135
 30
0.9527838230133057
 11
0.20516151189804077
 21
0.7257044315338135
 31
0.9734163284301758
 12
0.20516151189804077
 22
0.9223237633705139
 32
0.9734163284301758
 13
0.22589729726314545
 23
0.9223237633705139
 33
0.9527838230133057
  0
3DFACE
  8
0
 10
0.25514909625053406
 20
0.7257044315338135
 30
0.9528568983078003
 11
0.22589729726314545
 21
0.7257044315338135
 31
0.9527838230133057
 12
0.22589729726314545
 22
0.9223237633705139
 32
0.9527838230133057
 13
0.25514909625053406
 23
0.9223237633705139
 33
0.9528568983078003
  0
3DFACE
  8
0
 10
0.3036525845527649
 20
0.7087942957878113
 30
0.7198374271392822
 11
0.1785578727722168
 21
0.7087942957878113
 31
0.719525158405304
 12
0.2068956196308136
 22
0.6988869309425354
 32
0.7853707075119019
 13
0.2749864459037781
 23
0.6988869309425354
 33
0.7855406403541565
  0
3DFACE
  8
0
 10
-0.027857929468154907
 20
0.7087942957878113
 30
0.9249128699302673
 11
-0.02817019820213318
 21
0.7087942957878113
 31
1.0500074625015259
 12
0.03767533600330353
 22
0.6988869309425354
 32
1.0216697454452515
 13
0.03784532845020294
 23
0.6988869309425354
 33
0.9535790085792542
  0
3DFACE
  8
0
 10
0.1772174835205078
 20
0.7087942957878113
 30
1.2564233541488647
 11
0.3023121953010559
 21
0.7087942957878113
 31
1.2567356824874878
 12
0.2739744782447815
 22
0.6988869309425354
 32
1.1908900737762451
 13
0.20588365197181702
 23
0.6988869309425354
 33
1.1907200813293457
  0
3DFACE
  8
0
 10
0.50872802734375
 20
0.7087942957878113
 30
1.0513479709625244
 11
0.509040355682373
 21
0.7087942957878113
 31
0.9262532591819763
 12
0.44319474697113037
 22
0.6988869905471802
 32
0.9545909762382507
 13
0.44302475452423096
 23
0.6988869309425354
 33
1.0226818323135376
  0
3DFACE
  8
0
 10
0.509040355682373
 20
0.7087942957878113
 30
0.9262532591819763
 11
0.509040355682373
 21
0.6653110980987549
 31
0.9262532591819763
 12
0.44319474697113037
 22
0.6653110980987549
 32
0.9545909762382507
 13
0.44319474697113037
 23
0.6988869905471802
 33
0.9545909762382507
  0
3DFACE
  8
0
 10
0.3036525845527649
 20
0.6653110980987549
 30
0.7198374271392822
 11
0.3036525845527649
 21
0.7087942957878113
 31
0.7198374271392822
 12
0.2749864459037781
 22
0.6988869309425354
 32
0.7855406403541565
 13
0.2749864459037781
 23
0.6653110980987549
 33
0.7855406403541565
  0
3DFACE
  8
0
 10
0.50872802734375
 20
0.6653110980987549
 30
1.0513479709625244
 11
0.50872802734375
 21
0.7087942957878113
 31
1.0513479709625244
 12
0.44302475452423096
 22
0.6988869309425354
 32
1.0226818323135376
 13
0.44302475452423096
 23
0.6653110384941101
 33
1.0226818323135376
  0
3DFACE
  8
0
 10
0.509040355682373
 20
0.6653110980987549
 30
0.9262532591819763
 11
0.50872802734375
 21
0.6653110980987549
 31
1.0513479709625244
 12
0.44302475452423096
 22
0.6653110384941101
 32
1.0226818323135376
 13
0.44319474697113037
 23
0.6653110980987549
 33
0.9545909762382507
  0
3DFACE
  8
0
 10
0.3023121953010559
 20
0.7087942957878113
 30
1.2567356824874878
 11
0.3023121953010559
 21
0.6653110980987549
 31
1.2567356824874878
 12
0.2739744782447815
 22
0.6653110384941101
 32
1.1908900737762451
 13
0.2739744782447815
 23
0.6988869309425354
 33
1.1908900737762451
  0
3DFACE
  8
0
 10
0.1772174835205078
 20
0.6653110980987549
 30
1.2564233541488647
 11
0.1772174835205078
 21
0.7087942957878113
 31
1.2564233541488647
 12
0.20588365197181702
 22
0.6988869309425354
 32
1.1907200813293457
 13
0.20588365197181702
 23
0.6653110384941101
 33
1.1907200813293457
  0
3DFACE
  8
0
 10
0.3023121953010559
 20
0.6653110980987549
 30
1.2567356824874878
 11
0.1772174835205078
 21
0.6653110980987549
 31
1.2564233541488647
 12
0.20588365197181702
 22
0.6653110384941101
 32
1.1907200813293457
 13
0.2739744782447815
 23
0.6653110384941101
 33
1.1908900737762451
  0
3DFACE
  8
0
 10
-0.02817019820213318
 20
0.7087942957878113
 30
1.0500074625015259
 11
-0.02817019820213318
 21
0.6653110384941101
 31
1.0500074625015259
 12
0.03767533600330353
 22
0.6653110384941101
 32
1.0216697454452515
 13
0.03767533600330353
 23
0.6988869309425354
 33
1.0216697454452515
  0
3DFACE
  8
0
 10
-0.027857929468154907
 20
0.6653110980987549
 30
0.9249128699302673
 11
-0.027857929468154907
 21
0.7087942957878113
 31
0.9249128699302673
 12
0.03784532845020294
 22
0.6988869309425354
 32
0.9535790085792542
 13
0.03784535825252533
 23
0.6653110980987549
 33
0.9535790085792542
  0
3DFACE
  8
0
 10
-0.02817019820213318
 20
0.6653110384941101
 30
1.0500074625015259
 11
-0.027857929468154907
 21
0.6653110980987549
 31
0.9249128699302673
 12
0.03784535825252533
 22
0.6653110980987549
 32
0.9535790085792542
 13
0.03767533600330353
 23
0.6653110384941101
 33
1.0216697454452515
  0
3DFACE
  8
0
 10
0.1785578727722168
 20
0.7087942957878113
 30
0.719525158405304
 11
0.1785578727722168
 21
0.6653110980987549
 31
0.719525158405304
 12
0.2068956196308136
 22
0.6653110980987549
 32
0.7853707075119019
 13
0.2068956196308136
 23
0.6988869309425354
 33
0.7853707075119019
  0
3DFACE
  8
0
 10
0.1785578727722168
 20
0.6653110980987549
 30
0.719525158405304
 11
0.3036525845527649
 21
0.6653110980987549
 31
0.7198374271392822
 12
0.2749864459037781
 22
0.6653110980987549
 32
0.7855406403541565
 13
0.2068956196308136
 23
0.6653110980987549
 33
0.7853707075119019
  0
3DFACE
  8
0
 10
0.2068956196308136
 20
0.6653110980987549
 30
0.7853707075119019
 11
0.2749864459037781
 21
0.6653110980987549
 31
0.7855406403541565
 12
0.25463682413101196
 22
0.6653110980987549
 32
0.934440553188324
 13
0.2266492247581482
 23
0.6653110980987549
 33
0.934440553188324
  0
3DFACE
  8
0
 10
0.2068956196308136
 20
0.6988869309425354
 30
0.7853707075119019
 11
0.2068956196308136
 21
0.6653110980987549
 31
0.7853707075119019
 12
0.2266492247581482
 22
0.6653110980987549
 32
0.934440553188324
 13
0.2266492247581482
 23
0.6919169425964355
 33
0.934440553188324
  0
3DFACE
  8
0
 10
0.03767533600330353
 20
0.6653110384941101
 30
1.0216697454452515
 11
0.03784535825252533
 21
0.6653110980987549
 31
0.9535790085792542
 12
0.18674521148204803
 22
0.6653110980987549
 32
0.9739286303520203
 13
0.18674521148204803
 23
0.6653110384941101
 33
1.0019161701202393
  0
3DFACE
  8
0
 10
0.03784535825252533
 20
0.6653110980987549
 30
0.9535790085792542
 11
0.03784532845020294
 21
0.6988869309425354
 31
0.9535790085792542
 12
0.18674521148204803
 22
0.6919170022010803
 32
0.9739286303520203
 13
0.18674521148204803
 23
0.6653110980987549
 33
0.9739286303520203
  0
3DFACE
  8
0
 10
0.03767533600330353
 20
0.6988869309425354
 30
1.0216697454452515
 11
0.03767533600330353
 21
0.6653110384941101
 31
1.0216697454452515
 12
0.18674521148204803
 22
0.6653110384941101
 32
1.0019161701202393
 13
0.18674521148204803
 23
0.6919169425964355
 33
1.0019161701202393
  0
3DFACE
  8
0
 10
0.2739744782447815
 20
0.6653110384941101
 30
1.1908900737762451
 11
0.20588365197181702
 21
0.6653110384941101
 31
1.1907200813293457
 12
0.22623327374458313
 22
0.6653110384941101
 32
1.0418201684951782
 13
0.2542208433151245
 23
0.6653110384941101
 33
1.0418201684951782
  0
3DFACE
  8
0
 10
0.20588365197181702
 20
0.6653110384941101
 30
1.1907200813293457
 11
0.20588365197181702
 21
0.6988869309425354
 31
1.1907200813293457
 12
0.22623327374458313
 22
0.6919169425964355
 32
1.0418201684951782
 13
0.22623327374458313
 23
0.6653110384941101
 33
1.0418201684951782
  0
3DFACE
  8
0
 10
0.2739744782447815
 20
0.6988869309425354
 30
1.1908900737762451
 11
0.2739744782447815
 21
0.6653110384941101
 31
1.1908900737762451
 12
0.2542208433151245
 22
0.6653110384941101
 32
1.0418201684951782
 13
0.2542208731174469
 23
0.6919169425964355
 33
1.0418201684951782
  0
3DFACE
  8
0
 10
0.44319474697113037
 20
0.6653110980987549
 30
0.9545909762382507
 11
0.44302475452423096
 21
0.6653110384941101
 31
1.0226818323135376
 12
0.29412487149238586
 22
0.6653110384941101
 32
1.0023322105407715
 13
0.29412487149238586
 23
0.6653110980987549
 33
0.9743445515632629
  0
3DFACE
  8
0
 10
0.44302475452423096
 20
0.6653110384941101
 30
1.0226818323135376
 11
0.44302475452423096
 21
0.6988869309425354
 31
1.0226818323135376
 12
0.29412487149238586
 22
0.6919169425964355
 32
1.0023322105407715
 13
0.29412487149238586
 23
0.6653110384941101
 33
1.0023322105407715
  0
3DFACE
  8
0
 10
0.2749864459037781
 20
0.6653110980987549
 30
0.7855406403541565
 11
0.2749864459037781
 21
0.6988869309425354
 31
0.7855406403541565
 12
0.25463682413101196
 22
0.6919169425964355
 32
0.934440553188324
 13
0.25463682413101196
 23
0.6653110980987549
 33
0.934440553188324
  0
3DFACE
  8
0
 10
0.44319474697113037
 20
0.6988869905471802
 30
0.9545909762382507
 11
0.44319474697113037
 21
0.6653110980987549
 31
0.9545909762382507
 12
0.29412487149238586
 22
0.6653110980987549
 32
0.9743445515632629
 13
0.29412487149238586
 23
0.6919170022010803
 33
0.9743445515632629
  0
3DFACE
  8
0
 10
0.44302475452423096
 20
0.6988869309425354
 30
1.0226818323135376
 11
0.44319474697113037
 21
0.6988869905471802
 31
0.9545909762382507
 12
0.29412487149238586
 22
0.6919170022010803
 32
0.9743445515632629
 13
0.29412487149238586
 23
0.6919169425964355
 33
1.0023322105407715
  0
3DFACE
  8
0
 10
0.20588365197181702
 20
0.6988869309425354
 30
1.1907200813293457
 11
0.2739744782447815
 21
0.6988869309425354
 31
1.1908900737762451
 12
0.2542208731174469
 22
0.6919169425964355
 32
1.0418201684951782
 13
0.22623327374458313
 23
0.6919169425964355
 33
1.0418201684951782
  0
3DFACE
  8
0
 10
0.03784532845020294
 20
0.6988869309425354
 30
0.9535790085792542
 11
0.03767533600330353
 21
0.6988869309425354
 31
1.0216697454452515
 12
0.18674521148204803
 22
0.6919169425964355
 32
1.0019161701202393
 13
0.18674521148204803
 23
0.6919170022010803
 33
0.9739286303520203
  0
3DFACE
  8
0
 10
0.2749864459037781
 20
0.6988869309425354
 30
0.7855406403541565
 11
0.2068956196308136
 21
0.6988869309425354
 31
0.7853707075119019
 12
0.2266492247581482
 22
0.6919169425964355
 32
0.934440553188324
 13
0.25463682413101196
 23
0.6919169425964355
 33
0.934440553188324
  0
3DFACE
  8
0
 10
0.2628081440925598
 20
0.7257044315338135
 30
0.934440553188324
 11
0.29412487149238586
 21
0.7257044315338135
 31
0.9660253524780273
 12
0.29412487149238586
 22
0.6484009623527527
 32
0.9660253524780273
 13
0.2628081440925598
 23
0.6484009623527527
 33
0.934440553188324
  0
3DFACE
  8
0
 10
0.29412487149238586
 20
0.7257044315338135
 30
0.9660253524780273
 11
0.29412487149238586
 21
0.7257044315338135
 31
1.0105035305023193
 12
0.29412487149238586
 22
0.6484009623527527
 32
1.0105035305023193
 13
0.29412487149238586
 23
0.6484009623527527
 33
0.9660253524780273
  0
3DFACE
  8
0
 10
0.29412487149238586
 20
0.7257044315338135
 30
1.0105035305023193
 11
0.2625400424003601
 21
0.7257044315338135
 31
1.0418201684951782
 12
0.2625400424003601
 22
0.6484009623527527
 32
1.0418201684951782
 13
0.29412487149238586
 23
0.6484009623527527
 33
1.0105035305023193
  0
3DFACE
  8
0
 10
0.2625400424003601
 20
0.7257044315338135
 30
1.0418201684951782
 11
0.21806193888187408
 21
0.7257044315338135
 31
1.0418201684951782
 12
0.21806193888187408
 22
0.6484009623527527
 32
1.0418201684951782
 13
0.2625400424003601
 23
0.6484009623527527
 33
1.0418201684951782
  0
3DFACE
  8
0
 10
0.21806193888187408
 20
0.7257044315338135
 30
1.0418201684951782
 11
0.18674521148204803
 21
0.7257044315338135
 31
1.0102354288101196
 12
0.18674521148204803
 22
0.6484009623527527
 32
1.0102354288101196
 13
0.21806193888187408
 23
0.6484009623527527
 33
1.0418201684951782
  0
3DFACE
  8
0
 10
0.18674521148204803
 20
0.7257044315338135
 30
1.0102354288101196
 11
0.18674521148204803
 21
0.7257044315338135
 31
0.9657573103904724
 12
0.18674521148204803
 22
0.6484009623527527
 32
0.9657573103904724
 13
0.18674521148204803
 23
0.6484009623527527
 33
1.0102354288101196
  0
3DFACE
  8
0
 10
0.18674521148204803
 20
0.7257044315338135
 30
0.9657573103904724
 11
0.2183300256729126
 21
0.7257044315338135
 31
0.934440553188324
 12
0.2183300107717514
 22
0.6484009623527527
 32
0.934440553188324
 13
0.18674521148204803
 23
0.6484009623527527
 33
0.9657573103904724
  0
3DFACE
  8
0
 10
0.2183300256729126
 20
0.7257044315338135
 30
0.934440553188324
 11
0.2628081440925598
 21
0.7257044315338135
 31
0.934440553188324
 12
0.2628081440925598
 22
0.6484009623527527
 32
0.934440553188324
 13
0.2183300107717514
 23
0.6484009623527527
 33
0.934440553188324
  0
ENDSEC
  0
EOF
